<svg width="16" height="16" viewBox="0 0 16 16" fill="none" xmlns="http://www.w3.org/2000/svg">
<path fill-rule="evenodd" clip-rule="evenodd" d="M4.66732 3.33333C4.66732 2.59695 5.26427 2 6.00065 2H10.0007C10.737 2 11.334 2.59695 11.334 3.33333V4.66667H14.0006C14.3688 4.66667 14.6673 4.96514 14.6673 5.33333V13.3333C14.6673 13.7015 14.3688 14 14.0006 14H2.00065C1.63246 14 1.33398 13.7015 1.33398 13.3333V5.33333C1.33398 4.96514 1.63246 4.66667 2.00065 4.66667H4.66732V3.33333ZM10.0007 3.33333V4.66667H6.00065V3.33333H10.0007ZM4.00073 8.66732V7.33398H12.0007V8.66732H4.00073Z" fill="#D70C17"/>
</svg>
