<svg width="20" height="20" viewBox="0 0 20 20" fill="none" xmlns="http://www.w3.org/2000/svg">
<path d="M8.75 3.75024H11.25C11.25 3.41872 11.1183 3.10078 10.8839 2.86636C10.6495 2.63194 10.3315 2.50024 10 2.50024C9.66848 2.50024 9.35054 2.63194 9.11612 2.86636C8.8817 3.10078 8.75 3.41872 8.75 3.75024ZM7.5 3.75024C7.5 3.0872 7.76339 2.45132 8.23223 1.98248C8.70107 1.51364 9.33696 1.25024 10 1.25024C10.663 1.25024 11.2989 1.51364 11.7678 1.98248C12.2366 2.45132 12.5 3.0872 12.5 3.75024H17.5C17.6658 3.75024 17.8247 3.81609 17.9419 3.9333C18.0592 4.05051 18.125 4.20948 18.125 4.37524C18.125 4.541 18.0592 4.69998 17.9419 4.81719C17.8247 4.9344 17.6658 5.00024 17.5 5.00024H16.795L15.2887 16.0477C15.1866 16.7964 14.8166 17.4827 14.2474 17.9796C13.6781 18.4764 12.9481 18.7502 12.1925 18.7502H7.8075C7.0519 18.7502 6.32189 18.4764 5.75263 17.9796C5.18336 17.4827 4.81341 16.7964 4.71125 16.0477L3.205 5.00024H2.5C2.33424 5.00024 2.17527 4.9344 2.05806 4.81719C1.94085 4.69998 1.875 4.541 1.875 4.37524C1.875 4.20948 1.94085 4.05051 2.05806 3.9333C2.17527 3.81609 2.33424 3.75024 2.5 3.75024H7.5ZM8.75 8.12524C8.75 7.95948 8.68415 7.80051 8.56694 7.6833C8.44973 7.56609 8.29076 7.50024 8.125 7.50024C7.95924 7.50024 7.80027 7.56609 7.68306 7.6833C7.56585 7.80051 7.5 7.95948 7.5 8.12524V14.3752C7.5 14.541 7.56585 14.7 7.68306 14.8172C7.80027 14.9344 7.95924 15.0002 8.125 15.0002C8.29076 15.0002 8.44973 14.9344 8.56694 14.8172C8.68415 14.7 8.75 14.541 8.75 14.3752V8.12524ZM11.875 7.50024C12.0408 7.50024 12.1997 7.56609 12.3169 7.6833C12.4342 7.80051 12.5 7.95948 12.5 8.12524V14.3752C12.5 14.541 12.4342 14.7 12.3169 14.8172C12.1997 14.9344 12.0408 15.0002 11.875 15.0002C11.7092 15.0002 11.5503 14.9344 11.4331 14.8172C11.3158 14.7 11.25 14.541 11.25 14.3752V8.12524C11.25 7.95948 11.3158 7.80051 11.4331 7.6833C11.5503 7.56609 11.7092 7.50024 11.875 7.50024ZM5.95 15.879C6.01134 16.3281 6.23331 16.7398 6.5748 17.0379C6.9163 17.3359 7.35422 17.5002 7.8075 17.5002H12.1925C12.646 17.5005 13.0842 17.3364 13.426 17.0383C13.7677 16.7402 13.9899 16.3283 14.0513 15.879L15.5338 5.00024H4.46625L5.95 15.879Z" fill="#101F33"/>
</svg>
