<svg width="20" height="20" viewBox="0 0 20 20" fill="none" xmlns="http://www.w3.org/2000/svg">
<path d="M19.3211 9.74712C19.2937 9.6854 18.632 8.21743 17.1609 6.74634C15.2008 4.78618 12.725 3.75024 9.99999 3.75024C7.27499 3.75024 4.79921 4.78618 2.83905 6.74634C1.36796 8.21743 0.703118 9.68774 0.678899 9.74712C0.643362 9.82705 0.625 9.91355 0.625 10.001C0.625 10.0885 0.643362 10.175 0.678899 10.2549C0.706243 10.3166 1.36796 11.7838 2.83905 13.2549C4.79921 15.2143 7.27499 16.2502 9.99999 16.2502C12.725 16.2502 15.2008 15.2143 17.1609 13.2549C18.632 11.7838 19.2937 10.3166 19.3211 10.2549C19.3566 10.175 19.375 10.0885 19.375 10.001C19.375 9.91355 19.3566 9.82705 19.3211 9.74712ZM9.99999 15.0002C7.5953 15.0002 5.49452 14.126 3.75546 12.4026C3.0419 11.693 2.43483 10.8838 1.95312 10.0002C2.4347 9.1166 3.04179 8.30741 3.75546 7.5979C5.49452 5.87446 7.5953 5.00024 9.99999 5.00024C12.4047 5.00024 14.5055 5.87446 16.2445 7.5979C16.9595 8.30724 17.5679 9.11643 18.0508 10.0002C17.4875 11.0518 15.0336 15.0002 9.99999 15.0002ZM9.99999 6.25024C9.25831 6.25024 8.53329 6.47018 7.9166 6.88223C7.29992 7.29429 6.81927 7.87996 6.53544 8.56518C6.25162 9.2504 6.17735 10.0044 6.32205 10.7318C6.46674 11.4593 6.82389 12.1274 7.34834 12.6519C7.87279 13.1763 8.54097 13.5335 9.2684 13.6782C9.99583 13.8229 10.7498 13.7486 11.4351 13.4648C12.1203 13.181 12.7059 12.7003 13.118 12.0836C13.5301 11.4669 13.75 10.7419 13.75 10.0002C13.749 9.006 13.3535 8.05277 12.6505 7.34974C11.9475 6.6467 10.9942 6.25128 9.99999 6.25024ZM9.99999 12.5002C9.50554 12.5002 9.02219 12.3536 8.61107 12.0789C8.19994 11.8042 7.87951 11.4138 7.69029 10.957C7.50107 10.5001 7.45157 9.99747 7.54803 9.51252C7.64449 9.02757 7.88259 8.58211 8.23222 8.23248C8.58186 7.88285 9.02731 7.64474 9.51227 7.54828C9.99722 7.45182 10.4999 7.50133 10.9567 7.69055C11.4135 7.87976 11.804 8.2002 12.0787 8.61132C12.3534 9.02244 12.5 9.50579 12.5 10.0002C12.5 10.6633 12.2366 11.2992 11.7678 11.768C11.2989 12.2369 10.663 12.5002 9.99999 12.5002Z" fill="#101F33"/>
</svg>
