<svg width="20" height="20" viewBox="0 0 20 20" fill="none" xmlns="http://www.w3.org/2000/svg">
<path fill-rule="evenodd" clip-rule="evenodd" d="M7.34837 3.3348C8.46359 2.26675 9.97607 1.66675 11.5532 1.66675C13.1304 1.66675 14.643 2.26677 15.7582 3.33483C16.8735 4.40288 17.5 5.85147 17.5 7.36193C17.5 8.87234 16.8736 10.3209 15.7583 11.389L9.75122 17.142C8.9546 17.9049 7.8742 18.3334 6.74768 18.3334C5.62112 18.3334 4.54071 17.9048 3.74412 17.1419C2.94752 16.379 2.5 15.3443 2.5 14.2654C2.5 13.1865 2.9475 12.1519 3.74409 11.389L9.75122 5.636C10.2292 5.17822 10.8774 4.92118 11.5533 4.92118C12.2292 4.92118 12.8775 5.17834 13.3554 5.63607C13.8334 6.09381 14.1019 6.71464 14.1019 7.36197C14.1019 8.00926 13.8335 8.63002 13.3555 9.0878L7.34837 14.8408L6.14694 13.6902L12.1541 7.9372C12.3133 7.78465 12.4028 7.5778 12.4028 7.36197C12.4028 7.14619 12.3133 6.93925 12.154 6.78667C11.9947 6.63409 11.7786 6.54838 11.5533 6.54838C11.3279 6.54838 11.1119 6.63406 10.9526 6.7866L4.94552 12.5396C4.46756 12.9973 4.19907 13.6181 4.19907 14.2654C4.19907 14.9128 4.46758 15.5336 4.94554 15.9913C5.4235 16.4491 6.07175 16.7062 6.74768 16.7062C7.42365 16.7062 8.07186 16.4491 8.54979 15.9914L14.5569 10.2384C15.3535 9.47553 15.8009 8.44086 15.8009 7.36193C15.8009 6.28303 15.3534 5.24832 14.5568 4.48543C13.7602 3.72253 12.6798 3.29394 11.5532 3.29394C10.4267 3.29394 9.34639 3.7225 8.54979 4.4854L3.74409 9.0878L2.54267 7.9372L7.34837 3.3348Z" fill="#101F33"/>
</svg>
