<svg width="20" height="20" viewBox="0 0 20 20" fill="none" xmlns="http://www.w3.org/2000/svg">
<path d="M14.1667 10.8333C16.0076 10.8333 17.5 12.3257 17.5 14.1667C17.5 16.0076 16.0076 17.5 14.1667 17.5C12.6137 17.5 11.3088 16.438 10.9385 15.0006L2.5 15V13.3333L10.9383 13.3335C11.3083 11.8957 12.6134 10.8333 14.1667 10.8333ZM14.1667 12.5C13.2462 12.5 12.5 13.2462 12.5 14.1667C12.5 15.0871 13.2462 15.8333 14.1667 15.8333C15.0871 15.8333 15.8333 15.0871 15.8333 14.1667C15.8333 13.2462 15.0871 12.5 14.1667 12.5ZM5.83333 2.5C7.38661 2.5 8.69174 3.56241 9.0617 5.0002L17.5 5V6.66667L9.06149 6.6673C8.69123 8.10467 7.3863 9.16667 5.83333 9.16667C3.99238 9.16667 2.5 7.67428 2.5 5.83333C2.5 3.99238 3.99238 2.5 5.83333 2.5ZM5.83333 4.16667C4.91286 4.16667 4.16667 4.91286 4.16667 5.83333C4.16667 6.75381 4.91286 7.5 5.83333 7.5C6.75381 7.5 7.5 6.75381 7.5 5.83333C7.5 4.91286 6.75381 4.16667 5.83333 4.16667Z" fill="#2B2D33"/>
</svg>
