<svg width="20" height="20" viewBox="0 0 20 20" fill="none" xmlns="http://www.w3.org/2000/svg">
<g clip-path="url(#clip0_3262_49254)">
<path fill-rule="evenodd" clip-rule="evenodd" d="M3.22202 15.8115L1.97379 17.0612C1.31664 17.7191 0.656569 18.3793 0 19.0375V15.8147L0.00262461 15.8115H3.22202Z" fill="url(#paint0_linear_3262_49254)"/>
<path fill-rule="evenodd" clip-rule="evenodd" d="M14.3768 15.8115V20H0.96521L2.87844 18.0852L3.73155 17.2337L5.14952 15.8115H14.3768Z" fill="url(#paint1_linear_3262_49254)"/>
<path fill-rule="evenodd" clip-rule="evenodd" d="M14.3768 6.57932V14.447H6.51536C9.09885 11.8629 11.7566 9.2016 14.3768 6.57932Z" fill="url(#paint2_linear_3262_49254)"/>
<path fill-rule="evenodd" clip-rule="evenodd" d="M20 0.94415V20H15.7397V5.21163C16.5084 4.44238 17.277 3.67224 18.0431 2.90299L20 0.94415Z" fill="url(#paint3_linear_3262_49254)"/>
<path fill-rule="evenodd" clip-rule="evenodd" d="M19.0159 0C13.8771 5.14953 9.02431 10.0102 4.58786 14.447H1.34955L15.6113 0H19.0159Z" fill="url(#paint4_linear_3262_49254)"/>
<path fill-rule="evenodd" clip-rule="evenodd" d="M13.6946 0L0 13.8734V0H13.6946Z" fill="url(#paint5_linear_3262_49254)"/>
</g>
<defs>
<linearGradient id="paint0_linear_3262_49254" x1="20" y1="0" x2="15.0498" y2="23.2098" gradientUnits="userSpaceOnUse">
<stop stop-color="#F61E2E"/>
<stop offset="1" stop-color="#920448"/>
</linearGradient>
<linearGradient id="paint1_linear_3262_49254" x1="20" y1="0" x2="15.0498" y2="23.2098" gradientUnits="userSpaceOnUse">
<stop stop-color="#F61E2E"/>
<stop offset="1" stop-color="#920448"/>
</linearGradient>
<linearGradient id="paint2_linear_3262_49254" x1="20" y1="0" x2="15.0498" y2="23.2098" gradientUnits="userSpaceOnUse">
<stop stop-color="#F61E2E"/>
<stop offset="1" stop-color="#920448"/>
</linearGradient>
<linearGradient id="paint3_linear_3262_49254" x1="20" y1="0" x2="15.0498" y2="23.2098" gradientUnits="userSpaceOnUse">
<stop stop-color="#F61E2E"/>
<stop offset="1" stop-color="#920448"/>
</linearGradient>
<linearGradient id="paint4_linear_3262_49254" x1="20" y1="0" x2="15.0498" y2="23.2098" gradientUnits="userSpaceOnUse">
<stop stop-color="#F61E2E"/>
<stop offset="1" stop-color="#920448"/>
</linearGradient>
<linearGradient id="paint5_linear_3262_49254" x1="20" y1="0" x2="15.0498" y2="23.2098" gradientUnits="userSpaceOnUse">
<stop stop-color="#F61E2E"/>
<stop offset="1" stop-color="#920448"/>
</linearGradient>
<clipPath id="clip0_3262_49254">
<rect width="20" height="20" rx="4" fill="white"/>
</clipPath>
</defs>
</svg>
