<svg width="20" height="20" viewBox="0 0 20 20" fill="none" xmlns="http://www.w3.org/2000/svg">
<path d="M7.58122 0.186344C8.03064 0.507353 8.13473 1.1319 7.81372 1.58132L6.086 4.00012H13.914L12.1863 1.58132C11.8653 1.1319 11.9694 0.507353 12.4188 0.186344C12.8682 -0.134665 13.4927 -0.0305731 13.8137 0.418839L16.3137 3.91884C16.3327 3.94536 16.3501 3.97248 16.3661 4.00012H19C19.5523 4.00012 20 4.44784 20 5.00012C20 5.55241 19.5523 6.00012 19 6.00012H2.34404L4.74404 14.0001H8.00001C8.55229 14.0001 9.00001 14.4478 9.00001 15.0001C9.00001 15.5524 8.55229 16.0001 8.00001 16.0001H4.00001C3.5584 16.0001 3.16908 15.7105 3.04218 15.2875L0.042182 5.28747C-0.0486503 4.9847 0.00902212 4.6568 0.197715 4.40319C0.386409 4.14958 0.683902 4.00012 1.00001 4.00012H3.63385C3.64985 3.97248 3.66731 3.94536 3.68625 3.91884L6.18625 0.418839C6.50726 -0.0305731 7.13181 -0.134665 7.58122 0.186344Z" fill="#A8A9BA"/>
<path fill-rule="evenodd" clip-rule="evenodd" d="M16.0712 8.93753C16.0792 8.93755 16.0868 8.93756 16.0938 8.93756C16.862 8.93756 17.7363 9.29019 18.3933 10.0786C18.7469 10.5029 18.6895 11.1335 18.2653 11.487C17.841 11.8406 17.2104 11.7833 16.8569 11.359C16.5764 11.0224 16.2631 10.9376 16.0938 10.9376C15.8496 10.9376 15.5968 10.9505 15.4061 11.0516C15.3311 11.0914 15.2718 11.1426 15.2233 11.2245C15.1724 11.3105 15.1027 11.4833 15.0934 11.8099C15.0929 11.826 15.0941 11.8346 15.0947 11.8374C15.095 11.8379 15.0954 11.8387 15.0961 11.8398C15.1033 11.8512 15.138 11.8982 15.2485 11.9714C15.4987 12.137 15.8683 12.2728 16.4135 12.4696C16.4202 12.472 16.427 12.4745 16.4338 12.4769C16.9067 12.6476 17.5346 12.8741 18.0359 13.226C18.5946 13.6181 19.0938 14.2368 19.0938 15.1563C19.0938 16.3789 18.4729 17.1642 17.7715 17.5972C17.1321 17.9919 16.4404 18.0938 16.0938 18.0938C15.7609 18.0938 15.2485 18.0325 14.7433 17.8785C14.2706 17.7344 13.5957 17.4475 13.1809 16.8548C12.8641 16.4023 12.9742 15.7788 13.4266 15.4621C13.8791 15.1454 14.5026 15.2554 14.8193 15.7078C14.8419 15.7401 14.979 15.8595 15.3265 15.9654C15.6413 16.0614 15.9571 16.0938 16.0938 16.0938C16.0937 16.0938 16.0938 16.0938 16.094 16.0938C16.0968 16.0937 16.1212 16.093 16.1652 16.0872C16.2107 16.0811 16.2682 16.0708 16.3326 16.0545C16.4646 16.0212 16.6021 15.9686 16.7209 15.8953C16.8366 15.8239 16.9226 15.7405 16.9812 15.6429C17.0369 15.5504 17.0938 15.4025 17.0938 15.1563C17.0938 15.0758 17.0865 15.0031 16.8869 14.863C16.6372 14.6877 16.266 14.5426 15.7346 14.3508C15.7054 14.3403 15.6755 14.3295 15.645 14.3186C15.1935 14.1563 14.6082 13.9459 14.1446 13.6391C13.5992 13.2781 13.0677 12.678 13.0942 11.7527C13.1112 11.1574 13.2461 10.6388 13.5019 10.2063C13.7601 9.76967 14.1096 9.47517 14.4695 9.28446C15.1271 8.93593 15.824 8.93711 16.0712 8.93753Z" fill="#A8A9BA"/>
<path fill-rule="evenodd" clip-rule="evenodd" d="M16 8C16.5523 8 17 8.44772 17 9V9.5C17 10.0523 16.5523 10.5 16 10.5C15.4477 10.5 15 10.0523 15 9.5V9C15 8.44772 15.4477 8 16 8Z" fill="#A8A9BA"/>
<path fill-rule="evenodd" clip-rule="evenodd" d="M16 16.5C16.5523 16.5 17 16.9477 17 17.5V18C17 18.5523 16.5523 19 16 19C15.4477 19 15 18.5523 15 18V17.5C15 16.9477 15.4477 16.5 16 16.5Z" fill="#A8A9BA"/>
</svg>
