<svg width="17" height="16" viewBox="0 0 17 16" fill="none" xmlns="http://www.w3.org/2000/svg">
<path fill-rule="evenodd" clip-rule="evenodd" d="M2.57589 4.21358C4.44802 1.54052 8.07844 0.54255 11.1367 2.008C14.5051 3.62204 15.9039 7.61317 14.261 10.9224C12.6182 14.2317 8.55576 15.606 5.18739 13.9919C3.83301 13.3429 2.76058 12.2898 2.0987 10.9938C1.93064 10.6647 2.06593 10.2641 2.4009 10.099C2.73586 9.93384 3.14365 10.0668 3.31172 10.3959C3.84128 11.4328 4.69775 12.2738 5.78233 12.7935C8.47702 14.0848 11.7269 12.9854 13.0412 10.3379C14.3555 7.69053 13.2365 4.49763 10.5418 3.2064C7.9589 1.96874 4.86591 2.92745 3.4563 5.3405H4.61161C4.98637 5.3405 5.29018 5.63898 5.29018 6.00717C5.29018 6.37536 4.98637 6.67383 4.61161 6.67383H1.89732C1.52256 6.67383 1.21875 6.37536 1.21875 6.00717V3.3405C1.21875 2.97231 1.52256 2.67383 1.89732 2.67383C2.27209 2.67383 2.57589 2.97231 2.57589 3.3405V4.21358Z" fill="#A8A9BA"/>
</svg>
