<svg width="20" height="20" viewBox="0 0 20 20" fill="none" xmlns="http://www.w3.org/2000/svg">
<path fill-rule="evenodd" clip-rule="evenodd" d="M13.5004 0C13.881 0 14.2286 0.216099 14.3971 0.557434L15.7808 3.3612L18.875 3.8108C19.2517 3.86554 19.5646 4.12938 19.6822 4.49139C19.7999 4.8534 19.7018 5.2508 19.4292 5.51649L17.1903 7.69892L17.7188 10.7805C17.7831 11.1557 17.6289 11.5349 17.321 11.7586C17.013 11.9823 16.6048 12.0119 16.2678 11.8347L13.5004 10.3798L10.7329 11.8347C10.396 12.0119 9.98771 11.9823 9.67977 11.7586C9.37182 11.5349 9.2176 11.1557 9.28194 10.7805L9.81049 7.69892L7.57155 5.51649C7.29898 5.2508 7.20088 4.8534 7.3185 4.49139C7.43613 4.12938 7.74908 3.86554 8.12576 3.8108L11.2199 3.3612L12.6036 0.557434C12.7721 0.216099 13.1197 0 13.5004 0ZM13.5004 3.25955L12.7807 4.71777C12.635 5.01291 12.3535 5.21748 12.0278 5.26481L10.4185 5.49865L11.583 6.63371C11.8187 6.86345 11.9262 7.19445 11.8706 7.51884L11.5957 9.12158L13.035 8.36487C13.3264 8.21171 13.6744 8.21171 13.9657 8.36487L15.4051 9.12158L15.1302 7.51884C15.0745 7.19445 15.1821 6.86345 15.4178 6.63371L16.5822 5.49865L14.973 5.26481C14.6473 5.21748 14.3657 5.01291 14.22 4.71777L13.5004 3.25955Z" fill="#A8A9BA"/>
<path d="M3 3C3 2.44772 3.44772 2 4 2H8.5C9.05228 2 9.5 1.55228 9.5 1C9.5 0.447715 9.05228 0 8.5 0H4C2.34315 0 1 1.34315 1 3V17C1 18.6569 2.34315 20 4 20H14C15.6569 20 17 18.6569 17 17V14.2353C17 13.683 16.5523 13.2353 16 13.2353C15.4477 13.2353 15 13.683 15 14.2353V17C15 17.5523 14.5523 18 14 18H4C3.44772 18 3 17.5523 3 17V3Z" fill="#A8A9BA"/>
<path d="M5 10C5 9.44771 5.44772 9 6 9H6.5C7.05228 9 7.5 9.44771 7.5 10C7.5 10.5523 7.05228 11 6.5 11H6C5.44772 11 5 10.5523 5 10Z" fill="#A8A9BA"/>
<path d="M5 14C5 13.4477 5.44772 13 6 13H8C8.55228 13 9 13.4477 9 14C9 14.5523 8.55228 15 8 15H6C5.44772 15 5 14.5523 5 14Z" fill="#A8A9BA"/>
</svg>
