<svg width="14" height="12" viewBox="0 0 14 12" fill="none" xmlns="http://www.w3.org/2000/svg">
<path d="M6.58174 2L6.58174 10C6.58174 10.2761 6.8096 10.5 7.09067 10.5C7.37175 10.5 7.5996 10.2761 7.5996 10L7.5996 2C7.5996 1.72386 7.37175 1.5 7.09067 1.5C6.8096 1.5 6.58174 1.72386 6.58174 2Z" fill="#A8A9BA"/>
<path d="M7.0952 9.2407L3.91094 5.67048C3.72571 5.46279 3.40417 5.44196 3.19277 5.62394C2.98137 5.80593 2.96017 6.12183 3.1454 6.32952L6.71298 10.3295C6.9159 10.557 7.27639 10.5568 7.47899 10.329L11.0364 6.32899C11.2214 6.12104 11.1997 5.80517 10.988 5.62348C10.7764 5.44179 10.4549 5.46307 10.2699 5.67101L7.0952 9.2407Z" fill="#A8A9BA"/>
</svg>
