<svg width="389" height="48" viewBox="0 0 389 48" fill="none" xmlns="http://www.w3.org/2000/svg">
<path fill-rule="evenodd" clip-rule="evenodd" d="M196.221 40.0848L201.079 47.6099H209.079L202.285 37.2355C200.677 34.8245 199.253 33.3999 197.974 32.9981C199.216 32.4866 200.568 31.0985 201.993 28.8702L208.385 19.2629H200.385L195.965 26.0209C195.052 27.4455 194.285 28.3953 193.591 28.8702C192.897 29.3451 191.91 29.6008 190.632 29.6008H188.878V7.93872H181.682V47.6099H188.878V36.5049H190.851C192.13 36.5049 193.116 36.7606 193.81 37.2355C194.504 37.7469 195.308 38.6967 196.221 40.0848ZM79.5814 47.6467L82.4307 40.3773H96.4215L99.2708 47.6467H107.928L91.8553 7.9755H87.2526L70.9238 47.6467H79.5814ZM85.1345 32.9249L89.445 22.1122L93.6824 32.9249H85.1345ZM124.112 18.8977H124.55C126.888 18.8977 129.116 19.3725 131.272 20.3223C133.39 21.2721 135.107 22.5506 136.349 24.1579L132.295 27.957C131.418 26.9707 130.249 26.1671 128.751 25.5461C127.253 24.925 125.902 24.5963 124.66 24.5963H124.221C122.906 24.6328 121.847 24.8885 121.043 25.3999C120.24 25.8748 119.838 26.5689 119.838 27.4456C119.838 28.2492 120.203 28.8337 120.897 29.199C121.591 29.5643 122.797 29.8565 124.55 30.0027L126.486 30.2218C133.463 30.6967 136.97 33.6556 136.97 39.062C136.97 41.6191 135.947 43.7378 133.865 45.4182C131.783 47.0985 129.043 47.9387 125.61 47.9387H125.317C122.541 47.9387 119.911 47.4273 117.427 46.441C114.979 45.4547 113.153 44.1396 111.984 42.4958L116.075 38.6602C116.916 39.6465 118.194 40.4501 119.984 41.1077C121.774 41.7652 123.527 42.094 125.244 42.094H125.537C128.386 42.094 129.774 41.1807 129.774 39.3177C129.774 38.2584 129.409 37.5278 128.642 37.1259C127.874 36.7241 126.632 36.4319 124.916 36.2858L123.345 36.1031C116.258 35.4821 112.678 32.7424 112.678 27.8839C112.678 25.0712 113.774 22.9159 115.966 21.3086C118.121 19.7378 120.824 18.9342 124.112 18.8977ZM166.85 47.6099H171.672V19.2629H166.85L166.448 23.2812C164.147 20.3223 161.042 18.8611 157.06 18.8611C153.079 18.8611 149.791 20.2857 147.161 23.0985C144.531 25.9113 143.216 29.3451 143.216 33.4364C143.216 37.4912 144.531 40.925 147.161 43.7378C149.791 46.5506 153.079 47.9387 157.06 47.9387C161.005 47.9387 164.147 46.514 166.448 43.5917L166.85 47.6099ZM157.717 40.998C159.69 40.998 161.407 40.304 162.832 38.9159C164.256 37.5277 165.023 35.7012 165.023 33.4729C165.023 31.2446 164.293 29.4181 162.832 27.9935C161.37 26.5688 159.654 25.8748 157.717 25.8748C155.745 25.8748 154.028 26.5688 152.603 27.9935C151.142 29.4181 150.412 31.2446 150.412 33.4729C150.412 35.7012 151.142 37.5277 152.567 38.9159C153.991 40.304 155.708 40.998 157.717 40.998ZM241.624 47.6099H236.802L236.4 43.5917C234.099 46.514 230.957 47.9387 227.012 47.9387C223.03 47.9387 219.742 46.5506 217.112 43.7378C214.482 40.925 213.167 37.4912 213.167 33.4364C213.167 29.3451 214.482 25.9113 217.112 23.0985C219.742 20.2857 223.03 18.8611 227.012 18.8611C230.994 18.8611 234.099 20.3223 236.4 23.2812L236.802 19.2629H241.624V47.6099ZM232.82 38.9159C231.396 40.304 229.679 40.998 227.706 40.998C225.697 40.998 223.98 40.304 222.555 38.9159C221.131 37.5277 220.4 35.7012 220.4 33.4729C220.4 31.2446 221.131 29.4181 222.592 27.9935C224.017 26.5688 225.733 25.8748 227.706 25.8748C229.642 25.8748 231.359 26.5688 232.82 27.9935C234.281 29.4181 235.012 31.2446 235.012 33.4729C235.012 35.7012 234.281 37.5277 232.82 38.9159ZM258.537 7.93872V22.0392C260.4 19.9204 262.884 18.8611 266.026 18.8611C270.008 18.8611 273.295 20.2857 275.889 23.0985C278.483 25.9113 279.798 29.3451 279.798 33.4364C279.798 37.5277 278.483 40.9615 275.889 43.7378C273.295 46.5505 270.008 47.9387 266.026 47.9387C262.044 47.9387 258.903 46.4775 256.565 43.5916L256.163 47.6099H251.341V7.93872H258.537ZM265.297 25.8748C267.233 25.8748 268.95 26.5688 270.411 27.9935C271.836 29.4181 272.566 31.2081 272.603 33.4729C272.603 35.7012 271.872 37.5277 270.448 38.9159C269.023 40.304 267.306 40.998 265.297 40.998C263.361 40.998 261.644 40.304 260.183 38.9159C258.722 37.5277 257.991 35.7012 257.991 33.4729C257.991 31.2446 258.722 29.4181 260.183 27.9935C261.607 26.5688 263.324 25.8748 265.297 25.8748ZM314.504 47.6099H309.682L309.281 43.5917C306.979 46.514 303.838 47.9387 299.892 47.9387C295.947 47.9387 292.623 46.5506 289.993 43.7378C287.363 40.925 286.048 37.4912 286.048 33.4364C286.048 29.3451 287.363 25.9113 289.993 23.0985C292.623 20.2857 295.911 18.8611 299.892 18.8611C303.874 18.8611 306.979 20.3223 309.281 23.2812L309.682 19.2629H314.504V47.6099ZM305.664 38.9159C304.239 40.304 302.522 40.998 300.55 40.998C298.577 40.998 296.86 40.304 295.399 38.9159C293.974 37.5277 293.244 35.7012 293.244 33.4729C293.244 31.2446 293.974 29.4181 295.436 27.9935C296.86 26.5688 298.577 25.8748 300.55 25.8748C302.486 25.8748 304.203 26.5688 305.664 27.9935C307.125 29.4181 307.856 31.2446 307.856 33.4729C307.856 35.7012 307.125 37.5277 305.664 38.9159ZM339.269 18.8977C343.288 18.8977 346.32 20.1397 348.438 22.6237C350.557 25.1077 351.616 28.4684 351.616 32.6693V47.61H344.42V33.1077C344.42 28.2858 342.338 25.8383 338.137 25.8383C335.982 25.8383 334.338 26.4958 333.133 27.8109C331.964 29.126 331.379 31.0986 331.379 33.7287V47.61H324.183V19.263H329.005L329.516 23.683C331.489 20.505 334.74 18.8977 339.269 18.8977ZM375.876 40.0848L380.734 47.6099H388.734L381.94 37.2355C380.332 34.8245 378.908 33.3999 377.629 32.9981C378.871 32.4866 380.223 31.0985 381.647 28.8702L388.003 19.2629H380.04L375.62 26.0209C374.707 27.4455 373.94 28.3953 373.245 28.8702C372.551 29.3451 371.565 29.6008 370.287 29.6008H368.533V7.93872H361.337V47.6099H368.533V36.5049H370.506C371.784 36.5049 372.771 36.7606 373.465 37.2355C374.159 37.7469 374.962 38.6967 375.876 40.0848Z" fill="white"/>
<path d="M7.73516 37.9586L4.73379 40.96C3.15586 42.5379 1.57793 44.1159 0 45.6938V37.9697L0.0110345 37.9586H7.73516V37.9586Z" fill="#E41D32"/>
<path d="M34.502 37.9586V48H2.31445L6.90479 43.4096L8.95721 41.3683L12.3558 37.9586H34.502Z" fill="#E41D32"/>
<path d="M34.5037 15.8234V34.6813H15.6348C21.8361 28.4909 28.2141 22.113 34.5037 15.8234Z" fill="#E41D32"/>
<path d="M47.9985 2.31714V47.9998H37.7695V12.5461C39.6123 10.7033 41.455 8.86058 43.2978 7.00679L47.9985 2.31714Z" fill="#E41D32"/>
<path d="M45.6957 0C33.3371 12.3696 21.6737 24.0331 11.0144 34.6924H3.24609L37.5192 0H45.6957Z" fill="#E41D32"/>
<path d="M32.9158 0L0 33.3131V0H32.9158Z" fill="#E41D32"/>
</svg>
