<svg width="41" height="40" viewBox="0 0 41 40" fill="none" xmlns="http://www.w3.org/2000/svg">
<g filter="url(#filter0_d_4164_23200)">
<g clip-path="url(#clip0_4164_23200)">
<path d="M38.93 10.3076H2.28711V13.0765H38.93V10.3076Z" fill="#F5F5F5"/>
<path d="M37.0171 4.76953H4.20116C3.50637 5.57025 2.97169 6.50913 2.64648 7.53879H38.5718C38.2466 6.50913 37.7119 5.57025 37.0171 4.76953Z" fill="#F5F5F5"/>
<path d="M38.93 15.8462H2.28711V18.6151H38.93V15.8462Z" fill="#F5F5F5"/>
<path d="M38.93 21.3845H2.28711V24.1534H38.93V21.3845Z" fill="#F5F5F5"/>
<path d="M38.93 26.9231H2.28711V29.692H38.93V26.9231Z" fill="#F5F5F5"/>
<path d="M38.5718 32.4617H2.64648C2.97162 33.4913 3.50637 34.4301 4.20116 35.2309H37.0171C37.7119 34.4301 38.2466 33.4913 38.5718 32.4617Z" fill="#F5F5F5"/>
<path d="M30.915 2H10.3034C7.85945 2 5.67139 3.07487 4.20117 4.76926H37.0171C35.5469 3.07487 33.3589 2 30.915 2Z" fill="#FF4B55"/>
<path d="M38.93 13.0769H2.28711V15.8458H38.93V13.0769Z" fill="#FF4B55"/>
<path d="M38.93 9.87506C38.93 9.06147 38.8044 8.27679 38.5712 7.53857H2.64588C2.41271 8.27679 2.28711 9.06147 2.28711 9.87506V10.3078H38.93V9.87506Z" fill="#FF4B55"/>
<path d="M38.93 18.6155H2.28711V21.3844H38.93V18.6155Z" fill="#FF4B55"/>
<path d="M38.93 30.1248V29.6921H2.28711V30.1248C2.28711 30.9384 2.41271 31.7231 2.64588 32.4614H38.5712C38.8044 31.7231 38.93 30.9384 38.93 30.1248Z" fill="#FF4B55"/>
<path d="M37.0171 35.2305H4.20117C5.6714 36.9249 7.85945 37.9997 10.3034 37.9997H30.915C33.3589 37.9997 35.5469 36.9249 37.0171 35.2305Z" fill="#FF4B55"/>
<path d="M38.93 24.1541H2.28711V26.923H38.93V24.1541Z" fill="#FF4B55"/>
<g filter="url(#filter1_d_4164_23200)">
<g clip-path="url(#clip1_4164_23200)">
<path d="M38.93 10.3076H2.28711V13.0765H38.93V10.3076Z" fill="#F5F5F5"/>
<path d="M37.0171 4.76953H4.20116C3.50637 5.57025 2.97169 6.50913 2.64648 7.53879H38.5718C38.2466 6.50913 37.7119 5.57025 37.0171 4.76953Z" fill="#F5F5F5"/>
<path d="M38.93 15.8462H2.28711V18.6151H38.93V15.8462Z" fill="#F5F5F5"/>
<path d="M38.93 21.3845H2.28711V24.1534H38.93V21.3845Z" fill="#F5F5F5"/>
<path d="M38.93 26.9231H2.28711V29.692H38.93V26.9231Z" fill="#F5F5F5"/>
<path d="M38.5718 32.4617H2.64648C2.97162 33.4913 3.50637 34.4301 4.20116 35.2309H37.0171C37.7119 34.4301 38.2466 33.4913 38.5718 32.4617Z" fill="#F5F5F5"/>
<path d="M30.915 2H10.3034C7.85945 2 5.67139 3.07487 4.20117 4.76926H37.0171C35.5469 3.07487 33.3589 2 30.915 2Z" fill="#FF4B55"/>
<path d="M38.93 13.0769H2.28711V15.8458H38.93V13.0769Z" fill="#FF4B55"/>
<path d="M38.93 9.87506C38.93 9.06147 38.8044 8.27679 38.5712 7.53857H2.64588C2.41271 8.27679 2.28711 9.06147 2.28711 9.87506V10.3078H38.93V9.87506Z" fill="#FF4B55"/>
<path d="M38.93 18.6155H2.28711V21.3844H38.93V18.6155Z" fill="#FF4B55"/>
<path d="M38.93 30.1248V29.6921H2.28711V30.1248C2.28711 30.9384 2.41271 31.7231 2.64588 32.4614H38.5712C38.8044 31.7231 38.93 30.9384 38.93 30.1248Z" fill="#FF4B55"/>
<path d="M37.0171 35.2305H4.20117C5.6714 36.9249 7.85945 37.9997 10.3034 37.9997H30.915C33.3589 37.9997 35.5469 36.9249 37.0171 35.2305Z" fill="#FF4B55"/>
<path d="M38.93 24.1541H2.28711V26.923H38.93V24.1541Z" fill="#FF4B55"/>
<path d="M22.0179 2H10.3027C5.87582 2 2.28711 5.52575 2.28711 9.875V21.3846H22.0179V2Z" fill="#41479B"/>
<path d="M4.41727 5.02819C4.39852 5.08647 4.46601 5.13471 4.51668 5.09913L4.90765 4.82463L5.29863 5.09913C5.34923 5.13471 5.41679 5.08647 5.39804 5.02819L5.25311 4.57805L5.63972 4.29757C5.68975 4.26122 5.66398 4.18324 5.60172 4.18275L5.12121 4.17909L5.03919 3.9375C4.83322 4.11391 4.63677 4.30066 4.45019 4.49662L4.56234 4.57805L4.41727 5.02819Z" fill="#F5F5F5"/>
<path d="M4.96846 7.46709L5.12047 7.91498L5.60098 7.91864C5.66317 7.91913 5.68901 7.99711 5.63898 8.03346L5.25237 8.31394L5.39729 8.76408C5.41605 8.82237 5.34856 8.87053 5.29789 8.83502L4.90691 8.56045L4.51593 8.83502C4.46533 8.8706 4.39777 8.82237 4.41652 8.76408L4.56145 8.31394L4.17484 8.03346C4.12481 7.99718 4.15058 7.91913 4.21277 7.91864L4.69328 7.91498L4.84529 7.46709C4.86526 7.40908 4.94878 7.40908 4.96846 7.46709Z" fill="#F5F5F5"/>
<path d="M4.96846 11.6109L5.12047 12.0588L5.60098 12.0624C5.66317 12.0629 5.68901 12.1409 5.63898 12.1773L5.25237 12.4577L5.39729 12.9079C5.41605 12.9662 5.34856 13.0143 5.29789 12.9788L4.90691 12.7043L4.51593 12.9788C4.46533 13.0143 4.39777 12.9662 4.41652 12.9079L4.56145 12.4577L4.17484 12.1773C4.12481 12.141 4.15058 12.0629 4.21277 12.0624L4.69328 12.0588L4.84529 11.6109C4.86526 11.5529 4.94878 11.5529 4.96846 11.6109Z" fill="#F5F5F5"/>
<path d="M4.96846 15.418L5.12047 15.8659L5.60098 15.8696C5.66317 15.8701 5.68901 15.948 5.63898 15.9844L5.25237 16.2649L5.39729 16.715C5.41605 16.7733 5.34856 16.8214 5.29789 16.7859L4.90691 16.5114L4.51593 16.7859C4.46533 16.8214 4.39777 16.7733 4.41652 16.715L4.56145 16.2649L4.17484 15.9844C4.12481 15.9481 4.15058 15.8701 4.21277 15.8696L4.69328 15.8659L4.84529 15.418C4.86526 15.36 4.94878 15.36 4.96846 15.418Z" fill="#F5F5F5"/>
<path d="M4.96846 18.8824L5.12047 19.3303L5.60098 19.3339C5.66317 19.3344 5.68901 19.4124 5.63898 19.4487L5.25237 19.7292L5.39729 20.1793C5.41605 20.2376 5.34856 20.2858 5.29789 20.2503L4.90691 19.9758L4.51593 20.2503C4.46533 20.2858 4.39777 20.2376 4.41652 20.1793L4.56145 19.7292L4.17484 19.4487C4.12481 19.4125 4.15058 19.3344 4.21277 19.3339L4.69328 19.3303L4.84529 18.8824C4.86526 18.8244 4.94878 18.8244 4.96846 18.8824Z" fill="#F5F5F5"/>
<path d="M6.8198 5.50029L6.97181 5.94818L7.45232 5.95184C7.51451 5.95233 7.54035 6.03031 7.49032 6.06659L7.10371 6.34707L7.24864 6.79721C7.26739 6.8555 7.1999 6.90373 7.14923 6.86815L6.7584 6.59358L6.36742 6.86815C6.31682 6.90373 6.24926 6.8555 6.26801 6.79721L6.41294 6.34707L6.0264 6.06659C5.97637 6.03031 6.00214 5.95226 6.06433 5.95184L6.54484 5.94818L6.69685 5.50029C6.7166 5.44229 6.80012 5.44229 6.8198 5.50029Z" fill="#F5F5F5"/>
<path d="M6.81995 9.64409L6.97196 10.092L7.45246 10.0956C7.51466 10.0961 7.54049 10.1741 7.49047 10.2105L7.10386 10.4909L7.24878 10.9411C7.26753 10.9994 7.20004 11.0476 7.14937 11.012L6.7584 10.7375L6.36742 11.012C6.31682 11.0476 6.24926 10.9994 6.26801 10.9411L6.41294 10.4909L6.0264 10.2105C5.97638 10.1742 6.00214 10.0961 6.06433 10.0956L6.54484 10.092L6.69685 9.64409C6.71675 9.58608 6.80026 9.58608 6.81995 9.64409Z" fill="#F5F5F5"/>
<path d="M6.81995 13.5808L6.97196 14.0287L7.45246 14.0324C7.51466 14.0328 7.54049 14.1108 7.49047 14.1472L7.10386 14.4277L7.24878 14.8778C7.26753 14.9361 7.20004 14.9842 7.14937 14.9487L6.7584 14.6742L6.36742 14.9487C6.31682 14.9843 6.24926 14.9361 6.26801 14.8778L6.41294 14.4277L6.0264 14.1472C5.97638 14.1109 6.00214 14.0328 6.06433 14.0324L6.54484 14.0287L6.69685 13.5808C6.71675 13.5229 6.80026 13.5229 6.81995 13.5808Z" fill="#F5F5F5"/>
<path d="M6.81995 17.1163L6.97196 17.5641L7.45246 17.5678C7.51466 17.5683 7.54049 17.6463 7.49047 17.6826L7.10386 17.9631L7.24878 18.4132C7.26753 18.4715 7.20004 18.5198 7.14937 18.4842L6.7584 18.2097L6.36742 18.4842C6.31682 18.5198 6.24926 18.4715 6.26801 18.4132L6.41294 17.9631L6.0264 17.6826C5.97638 17.6463 6.00214 17.5683 6.06433 17.5678L6.54484 17.5641L6.69685 17.1163C6.71675 17.0583 6.80026 17.0583 6.81995 17.1163Z" fill="#F5F5F5"/>
<path d="M8.66956 3.73095L8.82157 4.17884L9.30207 4.1825C9.36427 4.18299 9.3901 4.26097 9.34008 4.29725L8.95347 4.57773L9.09839 5.02787C9.11714 5.08616 9.04965 5.13432 8.99898 5.09881L8.60801 4.82424L8.21703 5.09881C8.16643 5.13439 8.09887 5.08616 8.11762 5.02787L8.26255 4.57773L7.87601 4.29725C7.82598 4.26097 7.85175 4.18292 7.91394 4.1825L8.39445 4.17884L8.54646 3.73095C8.56635 3.67302 8.64987 3.67302 8.66956 3.73095Z" fill="#F5F5F5"/>
<path d="M8.66956 7.46709L8.82157 7.91498L9.30207 7.91864C9.36427 7.91913 9.3901 7.99711 9.34008 8.03346L8.95347 8.31394L9.09839 8.76408C9.11714 8.82237 9.04965 8.87053 8.99898 8.83502L8.60801 8.56045L8.21703 8.83502C8.16643 8.8706 8.09887 8.82237 8.11762 8.76408L8.26255 8.31394L7.87601 8.03346C7.82598 7.99718 7.85175 7.91913 7.91394 7.91864L8.39445 7.91498L8.54646 7.46709C8.56635 7.40908 8.64987 7.40908 8.66956 7.46709Z" fill="#F5F5F5"/>
<path d="M8.66956 11.6109L8.82157 12.0588L9.30207 12.0624C9.36427 12.0629 9.3901 12.1409 9.34008 12.1773L8.95347 12.4577L9.09839 12.9079C9.11714 12.9662 9.04965 13.0143 8.99898 12.9788L8.60801 12.7043L8.21703 12.9788C8.16643 13.0143 8.09887 12.9662 8.11762 12.9079L8.26255 12.4577L7.87601 12.1773C7.82598 12.141 7.85175 12.0629 7.91394 12.0624L8.39445 12.0588L8.54646 11.6109C8.56635 11.5529 8.64987 11.5529 8.66956 11.6109Z" fill="#F5F5F5"/>
<path d="M8.66956 15.418L8.82157 15.8659L9.30207 15.8696C9.36427 15.8701 9.3901 15.948 9.34008 15.9844L8.95347 16.2649L9.09839 16.715C9.11714 16.7733 9.04965 16.8214 8.99898 16.7859L8.60801 16.5114L8.21703 16.7859C8.16643 16.8214 8.09887 16.7733 8.11762 16.715L8.26255 16.2649L7.87601 15.9844C7.82598 15.9481 7.85175 15.8701 7.91394 15.8696L8.39445 15.8659L8.54646 15.418C8.56635 15.36 8.64987 15.36 8.66956 15.418Z" fill="#F5F5F5"/>
<path d="M8.66956 18.8824L8.82157 19.3303L9.30207 19.3339C9.36427 19.3344 9.3901 19.4124 9.34008 19.4487L8.95347 19.7292L9.09839 20.1793C9.11714 20.2376 9.04965 20.2858 8.99898 20.2503L8.60801 19.9758L8.21703 20.2503C8.16643 20.2858 8.09887 20.2376 8.11762 20.1793L8.26255 19.7292L7.87601 19.4487C7.82598 19.4125 7.85175 19.3344 7.91394 19.3339L8.39445 19.3303L8.54646 18.8824C8.56635 18.8244 8.64987 18.8244 8.66956 18.8824Z" fill="#F5F5F5"/>
<path d="M10.5212 5.50029L10.6732 5.94818L11.1537 5.95184C11.2159 5.95233 11.2417 6.03031 11.1916 6.06659L10.8051 6.34707L10.95 6.79721C10.9688 6.8555 10.9013 6.90373 10.8506 6.86815L10.4596 6.59358L10.0687 6.86815C10.0181 6.90373 9.9505 6.8555 9.96926 6.79721L10.1142 6.34707L9.72757 6.06659C9.67754 6.03031 9.70331 5.95226 9.76557 5.95184L10.2461 5.94818L10.3981 5.50029C10.4181 5.44229 10.5015 5.44229 10.5212 5.50029Z" fill="#F5F5F5"/>
<path d="M10.5212 9.64409L10.6732 10.092L11.1537 10.0956C11.2159 10.0961 11.2417 10.1741 11.1916 10.2105L10.8051 10.4909L10.95 10.9411C10.9688 10.9994 10.9013 11.0476 10.8506 11.012L10.4596 10.7375L10.0687 11.012C10.0181 11.0476 9.9505 10.9994 9.96926 10.9411L10.1142 10.4909L9.72757 10.2105C9.67754 10.1742 9.70331 10.0961 9.76557 10.0956L10.2461 10.092L10.3981 9.64409C10.4181 9.58608 10.5015 9.58608 10.5212 9.64409Z" fill="#F5F5F5"/>
<path d="M10.5212 13.5808L10.6732 14.0287L11.1537 14.0324C11.2159 14.0328 11.2417 14.1108 11.1916 14.1472L10.8051 14.4277L10.95 14.8778C10.9688 14.9361 10.9013 14.9842 10.8506 14.9487L10.4596 14.6742L10.0687 14.9487C10.0181 14.9843 9.9505 14.9361 9.96926 14.8778L10.1142 14.4277L9.72757 14.1472C9.67754 14.1109 9.70331 14.0328 9.76557 14.0324L10.2461 14.0287L10.3981 13.5808C10.4181 13.5229 10.5015 13.5229 10.5212 13.5808Z" fill="#F5F5F5"/>
<path d="M10.5212 17.1163L10.6732 17.5641L11.1537 17.5678C11.2159 17.5683 11.2417 17.6463 11.1916 17.6826L10.8051 17.9631L10.95 18.4132C10.9688 18.4715 10.9013 18.5198 10.8506 18.4842L10.4596 18.2097L10.0687 18.4842C10.0181 18.5198 9.9505 18.4715 9.96926 18.4132L10.1142 17.9631L9.72757 17.6826C9.67754 17.6463 9.70331 17.5683 9.76557 17.5678L10.2461 17.5641L10.3981 17.1163C10.4181 17.0583 10.5015 17.0583 10.5212 17.1163Z" fill="#F5F5F5"/>
<path d="M12.3727 3.73095L12.5247 4.17884L13.0052 4.1825C13.0674 4.18299 13.0932 4.26097 13.0431 4.29725L12.6566 4.57773L12.8015 5.02787C12.8203 5.08616 12.7528 5.13432 12.7021 5.09881L12.3111 4.82424L11.9202 5.09881C11.8696 5.13439 11.802 5.08616 11.8207 5.02787L11.9657 4.57773L11.5791 4.29725C11.5291 4.26097 11.5549 4.18292 11.6171 4.1825L12.0976 4.17884L12.2497 3.73095C12.2696 3.67302 12.353 3.67302 12.3727 3.73095Z" fill="#F5F5F5"/>
<path d="M12.3726 7.4671L12.5246 7.91499L13.0051 7.91865C13.0673 7.91914 13.0931 7.99712 13.0431 8.03347L12.6565 8.31394L12.8015 8.76402C12.8203 8.82231 12.7528 8.87047 12.7021 8.83496L12.3111 8.56039L11.9202 8.83496C11.8696 8.87054 11.802 8.82231 11.8207 8.76402L11.9657 8.31387L11.5791 8.0334C11.5291 7.99712 11.5549 7.91907 11.6171 7.91858L12.0976 7.91492L12.2497 7.46703C12.2695 7.40909 12.3529 7.40909 12.3726 7.4671Z" fill="#F5F5F5"/>
<path d="M12.3727 11.6109L12.5247 12.0588L13.0052 12.0624C13.0674 12.0629 13.0932 12.1409 13.0431 12.1773L12.6566 12.4577L12.8015 12.9079C12.8203 12.9662 12.7528 13.0143 12.7021 12.9788L12.3111 12.7043L11.9202 12.9788C11.8696 13.0143 11.802 12.9662 11.8207 12.9079L11.9657 12.4577L11.5791 12.1773C11.5291 12.141 11.5549 12.0629 11.6171 12.0624L12.0976 12.0588L12.2497 11.6109C12.2696 11.5529 12.353 11.5529 12.3727 11.6109Z" fill="#F5F5F5"/>
<path d="M12.3727 15.418L12.5247 15.8659L13.0052 15.8696C13.0674 15.8701 13.0932 15.948 13.0431 15.9844L12.6566 16.2649L12.8015 16.715C12.8203 16.7733 12.7528 16.8214 12.7021 16.7859L12.3111 16.5114L11.9202 16.7859C11.8696 16.8214 11.802 16.7733 11.8207 16.715L11.9657 16.2649L11.5791 15.9844C11.5291 15.9481 11.5549 15.8701 11.6171 15.8696L12.0976 15.8659L12.2497 15.418C12.2696 15.36 12.353 15.36 12.3727 15.418Z" fill="#F5F5F5"/>
<path d="M12.3727 18.8824L12.5247 19.3303L13.0052 19.3339C13.0674 19.3344 13.0932 19.4124 13.0431 19.4487L12.6566 19.7292L12.8015 20.1793C12.8203 20.2376 12.7528 20.2858 12.7021 20.2503L12.3111 19.9758L11.9202 20.2503C11.8696 20.2858 11.802 20.2376 11.8207 20.1793L11.9657 19.7292L11.5791 19.4487C11.5291 19.4125 11.5549 19.3344 11.6171 19.3339L12.0976 19.3303L12.2497 18.8824C12.2696 18.8244 12.353 18.8244 12.3727 18.8824Z" fill="#F5F5F5"/>
<path d="M14.2243 5.50029L14.3763 5.94818L14.8568 5.95184C14.919 5.95233 14.9449 6.03031 14.8948 6.06659L14.5082 6.34707L14.6531 6.79721C14.6718 6.8555 14.6043 6.90373 14.5537 6.86815L14.1627 6.59358L13.7717 6.86815C13.7211 6.90373 13.6536 6.8555 13.6723 6.79721L13.8172 6.34707L13.4307 6.06659C13.3807 6.03031 13.4064 5.95226 13.4686 5.95184L13.9491 5.94818L14.1011 5.50029C14.1212 5.44229 14.2046 5.44229 14.2243 5.50029Z" fill="#F5F5F5"/>
<path d="M14.2243 9.64409L14.3763 10.092L14.8568 10.0956C14.919 10.0961 14.9449 10.1741 14.8948 10.2105L14.5082 10.4909L14.6531 10.9411C14.6718 10.9994 14.6043 11.0476 14.5537 11.012L14.1627 10.7375L13.7717 11.012C13.7211 11.0476 13.6536 10.9994 13.6723 10.9411L13.8172 10.4909L13.4307 10.2105C13.3807 10.1742 13.4064 10.0961 13.4686 10.0956L13.9491 10.092L14.1011 9.64409C14.1212 9.58608 14.2046 9.58608 14.2243 9.64409Z" fill="#F5F5F5"/>
<path d="M14.2243 13.5808L14.3763 14.0287L14.8568 14.0324C14.919 14.0328 14.9449 14.1108 14.8948 14.1472L14.5082 14.4277L14.6531 14.8778C14.6718 14.9361 14.6043 14.9842 14.5537 14.9487L14.1627 14.6742L13.7717 14.9487C13.7211 14.9843 13.6536 14.9361 13.6723 14.8778L13.8172 14.4277L13.4307 14.1472C13.3807 14.1109 13.4064 14.0328 13.4686 14.0324L13.9491 14.0287L14.1011 13.5808C14.1212 13.5229 14.2046 13.5229 14.2243 13.5808Z" fill="#F5F5F5"/>
<path d="M14.2243 17.1163L14.3763 17.5641L14.8568 17.5678C14.919 17.5683 14.9449 17.6463 14.8948 17.6826L14.5082 17.9631L14.6531 18.4132C14.6718 18.4715 14.6043 18.5198 14.5537 18.4842L14.1627 18.2097L13.7717 18.4842C13.7211 18.5198 13.6536 18.4715 13.6723 18.4132L13.8172 17.9631L13.4307 17.6826C13.3807 17.6463 13.4064 17.5683 13.4686 17.5678L13.9491 17.5641L14.1011 17.1163C14.1212 17.0583 14.2046 17.0583 14.2243 17.1163Z" fill="#F5F5F5"/>
<path d="M16.074 3.73095L16.226 4.17884L16.7065 4.1825C16.7687 4.18299 16.7945 4.26097 16.7444 4.29725L16.3578 4.57773L16.5028 5.02787C16.5215 5.08616 16.454 5.13432 16.4034 5.09881L16.0124 4.82424L15.6214 5.09881C15.5708 5.13439 15.5032 5.08616 15.522 5.02787L15.6669 4.57773L15.2803 4.29725C15.2303 4.26097 15.256 4.18292 15.3183 4.1825L15.7988 4.17884L15.9508 3.73095C15.9709 3.67302 16.0543 3.67302 16.074 3.73095Z" fill="#F5F5F5"/>
<path d="M16.074 7.46709L16.226 7.91498L16.7065 7.91864C16.7687 7.91913 16.7945 7.99711 16.7444 8.03346L16.3578 8.31394L16.5028 8.76408C16.5215 8.82237 16.454 8.87053 16.4034 8.83502L16.0124 8.56045L15.6214 8.83502C15.5708 8.8706 15.5032 8.82237 15.522 8.76408L15.6669 8.31394L15.2803 8.03346C15.2303 7.99718 15.256 7.91913 15.3183 7.91864L15.7988 7.91498L15.9508 7.46709C15.9709 7.40908 16.0543 7.40908 16.074 7.46709Z" fill="#F5F5F5"/>
<path d="M16.074 11.6109L16.226 12.0588L16.7065 12.0624C16.7687 12.0629 16.7945 12.1409 16.7444 12.1773L16.3578 12.4577L16.5028 12.9079C16.5215 12.9662 16.454 13.0143 16.4034 12.9788L16.0124 12.7043L15.6214 12.9788C15.5708 13.0143 15.5032 12.9662 15.522 12.9079L15.6669 12.4577L15.2803 12.1773C15.2303 12.141 15.256 12.0629 15.3183 12.0624L15.7988 12.0588L15.9508 11.6109C15.9709 11.5529 16.0543 11.5529 16.074 11.6109Z" fill="#F5F5F5"/>
<path d="M16.074 15.418L16.226 15.8659L16.7065 15.8696C16.7687 15.8701 16.7945 15.948 16.7444 15.9844L16.3578 16.2649L16.5028 16.715C16.5215 16.7733 16.454 16.8214 16.4034 16.7859L16.0124 16.5114L15.6214 16.7859C15.5708 16.8214 15.5032 16.7733 15.522 16.715L15.6669 16.2649L15.2803 15.9844C15.2303 15.9481 15.256 15.8701 15.3183 15.8696L15.7988 15.8659L15.9508 15.418C15.9709 15.36 16.0543 15.36 16.074 15.418Z" fill="#F5F5F5"/>
<path d="M16.074 18.8824L16.226 19.3303L16.7065 19.3339C16.7687 19.3344 16.7945 19.4124 16.7444 19.4487L16.3578 19.7292L16.5028 20.1793C16.5215 20.2376 16.454 20.2858 16.4034 20.2503L16.0124 19.9758L15.6214 20.2503C15.5708 20.2858 15.5032 20.2376 15.522 20.1793L15.6669 19.7292L15.2803 19.4487C15.2303 19.4125 15.256 19.3344 15.3183 19.3339L15.7988 19.3303L15.9508 18.8824C15.9709 18.8244 16.0543 18.8244 16.074 18.8824Z" fill="#F5F5F5"/>
<path d="M17.9255 5.50029L18.0775 5.94818L18.5581 5.95184C18.6203 5.95233 18.6461 6.03031 18.596 6.06659L18.2094 6.34707L18.3543 6.79721C18.3731 6.8555 18.3055 6.90373 18.2549 6.86815L17.8639 6.59358L17.473 6.86815C17.4224 6.90373 17.3548 6.8555 17.3736 6.79721L17.5185 6.34707L17.1319 6.06659C17.0818 6.03031 17.1076 5.95226 17.1698 5.95184L17.6504 5.94818L17.8024 5.50029C17.8224 5.44229 17.9058 5.44229 17.9255 5.50029Z" fill="#F5F5F5"/>
<path d="M17.9255 9.64409L18.0775 10.092L18.5581 10.0956C18.6203 10.0961 18.6461 10.1741 18.596 10.2105L18.2094 10.4909L18.3543 10.9411C18.3731 10.9994 18.3055 11.0476 18.2549 11.012L17.8639 10.7375L17.473 11.012C17.4224 11.0476 17.3548 10.9994 17.3736 10.9411L17.5185 10.4909L17.1319 10.2105C17.0818 10.1742 17.1076 10.0961 17.1698 10.0956L17.6504 10.092L17.8024 9.64409C17.8224 9.58608 17.9058 9.58608 17.9255 9.64409Z" fill="#F5F5F5"/>
<path d="M17.9255 13.5808L18.0775 14.0287L18.5581 14.0324C18.6203 14.0328 18.6461 14.1108 18.596 14.1472L18.2094 14.4277L18.3543 14.8778C18.3731 14.9361 18.3055 14.9842 18.2549 14.9487L17.8639 14.6742L17.473 14.9487C17.4224 14.9843 17.3548 14.9361 17.3736 14.8778L17.5185 14.4277L17.1319 14.1472C17.0818 14.1109 17.1076 14.0328 17.1698 14.0324L17.6504 14.0287L17.8024 13.5808C17.8224 13.5229 17.9058 13.5229 17.9255 13.5808Z" fill="#F5F5F5"/>
<path d="M17.9255 17.1163L18.0775 17.5641L18.5581 17.5678C18.6203 17.5683 18.6461 17.6463 18.596 17.6826L18.2094 17.9631L18.3543 18.4132C18.3731 18.4715 18.3055 18.5198 18.2549 18.4842L17.8639 18.2097L17.473 18.4842C17.4224 18.5198 17.3548 18.4715 17.3736 18.4132L17.5185 17.9631L17.1319 17.6826C17.0818 17.6463 17.1076 17.5683 17.1698 17.5678L17.6504 17.5641L17.8024 17.1163C17.8224 17.0583 17.9058 17.0583 17.9255 17.1163Z" fill="#F5F5F5"/>
<path d="M19.7771 3.73095L19.9291 4.17884L20.4096 4.1825C20.4718 4.18299 20.4976 4.26097 20.4476 4.29725L20.061 4.57773L20.2059 5.02787C20.2246 5.08616 20.1571 5.13432 20.1065 5.09881L19.7155 4.82424L19.3245 5.09881C19.2739 5.13439 19.2064 5.08616 19.2251 5.02787L19.37 4.57773L18.9834 4.29725C18.9334 4.26097 18.9592 4.18292 19.0214 4.1825L19.5019 4.17884L19.6539 3.73095C19.6739 3.67302 19.7574 3.67302 19.7771 3.73095Z" fill="#F5F5F5"/>
<path d="M19.7771 7.46709L19.9291 7.91498L20.4096 7.91864C20.4718 7.91913 20.4976 7.99711 20.4476 8.03346L20.061 8.31394L20.2059 8.76408C20.2246 8.82237 20.1571 8.87053 20.1065 8.83502L19.7155 8.56045L19.3245 8.83502C19.2739 8.8706 19.2064 8.82237 19.2251 8.76408L19.37 8.31394L18.9834 8.03346C18.9334 7.99718 18.9592 7.91913 19.0214 7.91864L19.5019 7.91498L19.6539 7.46709C19.6739 7.40908 19.7574 7.40908 19.7771 7.46709Z" fill="#F5F5F5"/>
<path d="M19.7771 11.6109L19.9291 12.0588L20.4096 12.0624C20.4718 12.0629 20.4976 12.1409 20.4476 12.1773L20.061 12.4577L20.2059 12.9079C20.2246 12.9662 20.1571 13.0143 20.1065 12.9788L19.7155 12.7043L19.3245 12.9788C19.2739 13.0143 19.2064 12.9662 19.2251 12.9079L19.37 12.4577L18.9834 12.1773C18.9334 12.141 18.9592 12.0629 19.0214 12.0624L19.5019 12.0588L19.6539 11.6109C19.6739 11.5529 19.7574 11.5529 19.7771 11.6109Z" fill="#F5F5F5"/>
<path d="M19.7771 15.418L19.9291 15.8659L20.4096 15.8696C20.4718 15.8701 20.4976 15.948 20.4476 15.9844L20.061 16.2649L20.2059 16.715C20.2246 16.7733 20.1571 16.8214 20.1065 16.7859L19.7155 16.5114L19.3245 16.7859C19.2739 16.8214 19.2064 16.7733 19.2251 16.715L19.37 16.2649L18.9834 15.9844C18.9334 15.9481 18.9592 15.8701 19.0214 15.8696L19.5019 15.8659L19.6539 15.418C19.6739 15.36 19.7574 15.36 19.7771 15.418Z" fill="#F5F5F5"/>
<path d="M19.7771 18.8824L19.9291 19.3303L20.4096 19.3339C20.4718 19.3344 20.4976 19.4124 20.4476 19.4487L20.061 19.7292L20.2059 20.1793C20.2246 20.2376 20.1571 20.2858 20.1065 20.2503L19.7155 19.9758L19.3245 20.2503C19.2739 20.2858 19.2064 20.2376 19.2251 20.1793L19.37 19.7292L18.9834 19.4487C18.9334 19.4125 18.9592 19.3344 19.0214 19.3339L19.5019 19.3303L19.6539 18.8824C19.6739 18.8244 19.7574 18.8244 19.7771 18.8824Z" fill="#F5F5F5"/>
<g clip-path="url(#clip2_4164_23200)">
<path d="M30.9143 2H10.3027C5.87582 2 2.28711 5.52575 2.28711 9.875V30.125C2.28711 34.4743 5.87582 38 10.3027 38H30.9143C35.3413 38 38.93 34.4743 38.93 30.125V9.875C38.93 5.52575 35.3413 2 30.9143 2Z" fill="#41479B"/>
<path d="M20.8879 9.0242L21.1935 9.92448L22.1595 9.93186C22.2845 9.93278 22.3364 10.0896 22.2358 10.1626L21.4588 10.7264L21.7501 11.6312C21.7878 11.7483 21.6521 11.8452 21.5504 11.7738L20.7646 11.222L19.9787 11.7738C19.877 11.8452 19.7413 11.7483 19.779 11.6312L20.0703 10.7264L19.2933 10.1626C19.1927 10.0896 19.2446 9.93285 19.3696 9.93186L20.3355 9.92448L20.6411 9.0242C20.6805 8.90762 20.8484 8.90762 20.8879 9.0242Z" fill="#FFE15A"/>
<path d="M20.8879 28.3531L21.1935 29.2533L22.1595 29.2606C22.2845 29.2616 22.3364 29.4184 22.2358 29.4913L21.4588 30.0551L21.7501 30.9599C21.7878 31.077 21.6521 31.1739 21.5504 31.1025L20.7646 30.5507L19.9787 31.1025C19.877 31.1739 19.7413 31.077 19.779 30.9599L20.0703 30.0551L19.2933 29.4913C19.1927 29.4184 19.2446 29.2616 19.3696 29.2606L20.3355 29.2533L20.6411 28.3531C20.6805 28.2365 20.8484 28.2365 20.8879 28.3531Z" fill="#FFE15A"/>
<path d="M30.724 18.6885L31.0296 19.5888L31.9955 19.5962C32.1205 19.5972 32.1724 19.7539 32.0718 19.8269L31.2948 20.3907L31.5861 21.2955C31.6238 21.4126 31.4881 21.5095 31.3864 21.4381L30.6006 20.8863L29.8147 21.4381C29.713 21.5095 29.5772 21.4126 29.6149 21.2955L29.9063 20.3907L29.1293 19.8269C29.0286 19.754 29.0805 19.5972 29.2056 19.5962L30.1714 19.5888L30.477 18.6885C30.5167 18.5719 30.6844 18.5719 30.724 18.6885Z" fill="#FFE15A"/>
<path d="M11.0501 18.6885L11.3557 19.5888L12.3216 19.5962C12.4466 19.5972 12.4985 19.7539 12.3979 19.8269L11.6209 20.3907L11.9122 21.2955C11.9499 21.4126 11.8142 21.5095 11.7125 21.4381L10.9267 20.8863L10.1408 21.4381C10.0391 21.5095 9.90338 21.4126 9.94109 21.2955L10.2324 20.3907L9.45543 19.8269C9.35481 19.754 9.40669 19.5972 9.53172 19.5962L10.4976 19.5888L10.8032 18.6885C10.8427 18.5719 11.0105 18.5719 11.0501 18.6885Z" fill="#FFE15A"/>
<path d="M12.5266 13.6418L12.8322 14.542L13.7981 14.5494C13.9232 14.5504 13.9751 14.7071 13.8744 14.7801L13.0974 15.3439L13.3888 16.2487C13.4265 16.3658 13.2907 16.4627 13.189 16.3913L12.4032 15.8394L11.6174 16.3913C11.5156 16.4627 11.3799 16.3658 11.4177 16.2487L11.709 15.3439L10.932 14.7801C10.8314 14.7071 10.8833 14.5503 11.0083 14.5494L11.9742 14.542L12.2798 13.6418C12.3192 13.5253 12.487 13.5253 12.5266 13.6418Z" fill="#FFE15A"/>
<path d="M29.5657 23.3062L29.8713 24.2065L30.8372 24.2138C30.9622 24.2148 31.0141 24.3716 30.9135 24.4445L30.1365 25.0083L30.4278 25.9131C30.4656 26.0302 30.3298 26.1271 30.2281 26.0557L29.4423 25.5039L28.6565 26.0557C28.5547 26.1271 28.4189 26.0302 28.4567 25.9131L28.7481 25.0083L27.9711 24.4445C27.8704 24.3716 27.9223 24.2148 28.0473 24.2138L29.0132 24.2065L29.3188 23.3062C29.3584 23.1896 29.5262 23.1896 29.5657 23.3062Z" fill="#FFE15A"/>
<path d="M25.9642 10.1042L26.2698 11.0045L27.2357 11.0119C27.3608 11.0129 27.4126 11.1696 27.312 11.2427L26.535 11.8064L26.8264 12.7112C26.8641 12.8283 26.7283 12.9252 26.6266 12.8538L25.8408 12.302L25.055 12.8538C24.9532 12.9252 24.8174 12.8283 24.8552 12.7112L25.1465 11.8064L24.3695 11.2427C24.2689 11.1697 24.3208 11.0129 24.4458 11.0119L25.4117 11.0045L25.7173 10.1042C25.7569 9.98772 25.9247 9.98772 25.9642 10.1042Z" fill="#FFE15A"/>
<path d="M16.1282 26.8435L16.4338 27.7438L17.3998 27.7512C17.5248 27.7522 17.5767 27.9089 17.4761 27.9819L16.6991 28.5457L16.9904 29.4504C17.0281 29.5676 16.8924 29.6645 16.7906 29.593L16.0048 29.0412L15.219 29.593C15.1172 29.6645 14.9815 29.5676 15.0192 29.4504L15.3106 28.5457L14.5336 27.9819C14.4329 27.9089 14.4848 27.7521 14.6098 27.7512L15.5757 27.7438L15.8813 26.8435C15.9208 26.727 16.0887 26.727 16.1282 26.8435Z" fill="#FFE15A"/>
<path d="M29.3188 13.6418L29.0132 14.542L28.0473 14.5494C27.9223 14.5504 27.8704 14.7071 27.9711 14.7801L28.7481 15.3439L28.4567 16.2487C28.419 16.3658 28.5548 16.4627 28.6565 16.3913L29.4423 15.8394L30.2281 16.3913C30.3299 16.4627 30.4656 16.3658 30.4278 16.2487L30.1365 15.3439L30.9135 14.7801C31.0141 14.7071 30.9622 14.5503 30.8372 14.5494L29.8713 14.542L29.5657 13.6418C29.5262 13.5253 29.3584 13.5253 29.3188 13.6418Z" fill="#FFE15A"/>
<path d="M12.2798 23.3062L11.9742 24.2065L11.0083 24.2138C10.8833 24.2148 10.8314 24.3716 10.932 24.4445L11.709 25.0083L11.4177 25.9131C11.3799 26.0302 11.5157 26.1271 11.6174 26.0557L12.4032 25.5039L13.189 26.0557C13.2908 26.1271 13.4265 26.0302 13.3889 25.9131L13.0975 25.0083L13.8745 24.4445C13.9751 24.3716 13.9233 24.2148 13.7982 24.2138L12.8323 24.2065L12.5267 23.3062C12.4872 23.1896 12.3193 23.1896 12.2798 23.3062Z" fill="#FFE15A"/>
<path d="M15.8813 10.1042L15.5757 11.0045L14.6098 11.0119C14.4848 11.0129 14.4329 11.1696 14.5336 11.2427L15.3106 11.8064L15.0192 12.7112C14.9815 12.8283 15.1173 12.9252 15.219 12.8538L16.0048 12.302L16.7906 12.8538C16.8924 12.9252 17.0281 12.8283 16.9903 12.7112L16.699 11.8064L17.476 11.2427C17.5766 11.1697 17.5247 11.0129 17.3997 11.0119L16.4338 11.0045L16.1282 10.1042C16.0887 9.98772 15.9209 9.98772 15.8813 10.1042Z" fill="#FFE15A"/>
<path d="M25.7173 26.8435L25.4117 27.7438L24.4458 27.7512C24.3208 27.7522 24.2689 27.9089 24.3695 27.9819L25.1465 28.5457L24.8552 29.4504C24.8174 29.5676 24.9532 29.6645 25.0549 29.593L25.8407 29.0412L26.6265 29.593C26.7283 29.6645 26.8641 29.5676 26.8263 29.4504L26.5349 28.5457L27.3119 27.9819C27.4126 27.9089 27.3607 27.7521 27.2357 27.7512L26.2698 27.7438L25.9642 26.8435C25.9247 26.727 25.7568 26.727 25.7173 26.8435Z" fill="#FFE15A"/>
<g clip-path="url(#clip3_4164_23200)">
<path d="M30.9143 38H10.3027C5.87582 38 2.28711 34.4743 2.28711 30.125V9.875C2.28711 5.52575 5.87582 2 10.3027 2H30.9143C35.3413 2 38.93 5.52575 38.93 9.875V30.125C38.93 34.4743 35.3413 38 30.9143 38Z" fill="#41479B"/>
<path d="M38.9305 30.1244V28.3956L33.2467 24.7371H38.9305V22.8423H23.502V38.0002H25.4305V26.5013L37.6638 34.3756C38.097 33.7129 38.4316 32.982 38.6478 32.2032" fill="#F5F5F5"/>
<path d="M2.82609 32.9688C3.02133 33.4638 3.26566 33.9348 3.55379 34.3756L15.7871 26.5013V38.0002H17.7156V22.8423H2.28711V24.7371H7.97097L2.28711 28.3956V30.1252C2.28711 30.4279 2.30514 30.7266 2.339 31.0205" fill="#F5F5F5"/>
<path d="M2.28711 10.1427V11.6045L7.97097 15.2632H2.28711V17.1579H17.7157V2H15.7871V13.4989L3.55379 5.62461C3.07837 6.35185 2.72174 7.16108 2.50997 8.02578" fill="#F5F5F5"/>
<path d="M38.381 7.00407C38.1876 6.51898 37.9467 6.05724 37.6638 5.62454L25.4305 13.4989V2H23.502V17.1579H38.9305V15.2632H33.2467L38.9305 11.6045V9.875C38.9305 9.56141 38.9113 9.25217 38.875 8.94814" fill="#F5F5F5"/>
<path d="M23.5014 2H17.7157V17.1579H2.28711V22.8421H17.7157V38H23.5014V22.8421H38.93V17.1579H23.5014V2Z" fill="#FF4B55"/>
<path d="M12.1926 24.7366L2.33984 31.02C2.41814 31.6995 2.58418 32.3527 2.82701 32.9684L15.735 24.7366H12.1926V24.7366Z" fill="#FF4B55"/>
<path d="M26.9395 24.7366L38.647 32.2028C38.8308 31.5407 38.9296 30.8441 38.9296 30.1248V30.124L30.4818 24.7366L26.9395 24.7366Z" fill="#FF4B55"/>
<path d="M13.8585 15.263L2.50997 8.02563C2.36462 8.61879 2.28711 9.23789 2.28711 9.87485V10.1425L10.3162 15.263H13.8585Z" fill="#FF4B55"/>
<path d="M28.9719 15.2632L38.8741 8.94815C38.7932 8.27006 38.625 7.61826 38.3801 7.00415L25.4297 15.2632H28.9719Z" fill="#FF4B55"/>
</g>
</g>
</g>
</g>
<path d="M22.0179 2H10.3027C5.87582 2 2.28711 5.52575 2.28711 9.875V21.3846H22.0179V2Z" fill="#41479B"/>
<path d="M4.41727 5.02819C4.39852 5.08647 4.46601 5.13471 4.51668 5.09913L4.90765 4.82463L5.29863 5.09913C5.34923 5.13471 5.41679 5.08647 5.39804 5.02819L5.25311 4.57805L5.63972 4.29757C5.68975 4.26122 5.66398 4.18324 5.60172 4.18275L5.12121 4.17909L5.03919 3.9375C4.83322 4.11391 4.63677 4.30066 4.45019 4.49662L4.56234 4.57805L4.41727 5.02819Z" fill="#F5F5F5"/>
<path d="M4.96846 7.46709L5.12047 7.91498L5.60098 7.91864C5.66317 7.91913 5.68901 7.99711 5.63898 8.03346L5.25237 8.31394L5.39729 8.76408C5.41605 8.82237 5.34856 8.87053 5.29789 8.83502L4.90691 8.56045L4.51593 8.83502C4.46533 8.8706 4.39777 8.82237 4.41652 8.76408L4.56145 8.31394L4.17484 8.03346C4.12481 7.99718 4.15058 7.91913 4.21277 7.91864L4.69328 7.91498L4.84529 7.46709C4.86526 7.40908 4.94878 7.40908 4.96846 7.46709Z" fill="#F5F5F5"/>
<path d="M4.96846 11.6109L5.12047 12.0588L5.60098 12.0624C5.66317 12.0629 5.68901 12.1409 5.63898 12.1773L5.25237 12.4577L5.39729 12.9079C5.41605 12.9662 5.34856 13.0143 5.29789 12.9788L4.90691 12.7043L4.51593 12.9788C4.46533 13.0143 4.39777 12.9662 4.41652 12.9079L4.56145 12.4577L4.17484 12.1773C4.12481 12.141 4.15058 12.0629 4.21277 12.0624L4.69328 12.0588L4.84529 11.6109C4.86526 11.5529 4.94878 11.5529 4.96846 11.6109Z" fill="#F5F5F5"/>
<path d="M4.96846 15.418L5.12047 15.8659L5.60098 15.8696C5.66317 15.8701 5.68901 15.948 5.63898 15.9844L5.25237 16.2649L5.39729 16.715C5.41605 16.7733 5.34856 16.8214 5.29789 16.7859L4.90691 16.5114L4.51593 16.7859C4.46533 16.8214 4.39777 16.7733 4.41652 16.715L4.56145 16.2649L4.17484 15.9844C4.12481 15.9481 4.15058 15.8701 4.21277 15.8696L4.69328 15.8659L4.84529 15.418C4.86526 15.36 4.94878 15.36 4.96846 15.418Z" fill="#F5F5F5"/>
<path d="M4.96846 18.8824L5.12047 19.3303L5.60098 19.3339C5.66317 19.3344 5.68901 19.4124 5.63898 19.4487L5.25237 19.7292L5.39729 20.1793C5.41605 20.2376 5.34856 20.2858 5.29789 20.2503L4.90691 19.9758L4.51593 20.2503C4.46533 20.2858 4.39777 20.2376 4.41652 20.1793L4.56145 19.7292L4.17484 19.4487C4.12481 19.4125 4.15058 19.3344 4.21277 19.3339L4.69328 19.3303L4.84529 18.8824C4.86526 18.8244 4.94878 18.8244 4.96846 18.8824Z" fill="#F5F5F5"/>
<path d="M6.8198 5.50029L6.97181 5.94818L7.45232 5.95184C7.51451 5.95233 7.54035 6.03031 7.49032 6.06659L7.10371 6.34707L7.24864 6.79721C7.26739 6.8555 7.1999 6.90373 7.14923 6.86815L6.7584 6.59358L6.36742 6.86815C6.31682 6.90373 6.24926 6.8555 6.26801 6.79721L6.41294 6.34707L6.0264 6.06659C5.97637 6.03031 6.00214 5.95226 6.06433 5.95184L6.54484 5.94818L6.69685 5.50029C6.7166 5.44229 6.80012 5.44229 6.8198 5.50029Z" fill="#F5F5F5"/>
<path d="M6.81995 9.64409L6.97196 10.092L7.45246 10.0956C7.51466 10.0961 7.54049 10.1741 7.49047 10.2105L7.10386 10.4909L7.24878 10.9411C7.26753 10.9994 7.20004 11.0476 7.14937 11.012L6.7584 10.7375L6.36742 11.012C6.31682 11.0476 6.24926 10.9994 6.26801 10.9411L6.41294 10.4909L6.0264 10.2105C5.97638 10.1742 6.00214 10.0961 6.06433 10.0956L6.54484 10.092L6.69685 9.64409C6.71675 9.58608 6.80026 9.58608 6.81995 9.64409Z" fill="#F5F5F5"/>
<path d="M6.81995 13.5808L6.97196 14.0287L7.45246 14.0324C7.51466 14.0328 7.54049 14.1108 7.49047 14.1472L7.10386 14.4277L7.24878 14.8778C7.26753 14.9361 7.20004 14.9842 7.14937 14.9487L6.7584 14.6742L6.36742 14.9487C6.31682 14.9843 6.24926 14.9361 6.26801 14.8778L6.41294 14.4277L6.0264 14.1472C5.97638 14.1109 6.00214 14.0328 6.06433 14.0324L6.54484 14.0287L6.69685 13.5808C6.71675 13.5229 6.80026 13.5229 6.81995 13.5808Z" fill="#F5F5F5"/>
<path d="M6.81995 17.1163L6.97196 17.5641L7.45246 17.5678C7.51466 17.5683 7.54049 17.6463 7.49047 17.6826L7.10386 17.9631L7.24878 18.4132C7.26753 18.4715 7.20004 18.5198 7.14937 18.4842L6.7584 18.2097L6.36742 18.4842C6.31682 18.5198 6.24926 18.4715 6.26801 18.4132L6.41294 17.9631L6.0264 17.6826C5.97638 17.6463 6.00214 17.5683 6.06433 17.5678L6.54484 17.5641L6.69685 17.1163C6.71675 17.0583 6.80026 17.0583 6.81995 17.1163Z" fill="#F5F5F5"/>
<path d="M8.66956 3.73095L8.82157 4.17884L9.30207 4.1825C9.36427 4.18299 9.3901 4.26097 9.34008 4.29725L8.95347 4.57773L9.09839 5.02787C9.11714 5.08616 9.04965 5.13432 8.99898 5.09881L8.60801 4.82424L8.21703 5.09881C8.16643 5.13439 8.09887 5.08616 8.11762 5.02787L8.26255 4.57773L7.87601 4.29725C7.82598 4.26097 7.85175 4.18292 7.91394 4.1825L8.39445 4.17884L8.54646 3.73095C8.56635 3.67302 8.64987 3.67302 8.66956 3.73095Z" fill="#F5F5F5"/>
<path d="M8.66956 7.46709L8.82157 7.91498L9.30207 7.91864C9.36427 7.91913 9.3901 7.99711 9.34008 8.03346L8.95347 8.31394L9.09839 8.76408C9.11714 8.82237 9.04965 8.87053 8.99898 8.83502L8.60801 8.56045L8.21703 8.83502C8.16643 8.8706 8.09887 8.82237 8.11762 8.76408L8.26255 8.31394L7.87601 8.03346C7.82598 7.99718 7.85175 7.91913 7.91394 7.91864L8.39445 7.91498L8.54646 7.46709C8.56635 7.40908 8.64987 7.40908 8.66956 7.46709Z" fill="#F5F5F5"/>
<path d="M8.66956 11.6109L8.82157 12.0588L9.30207 12.0624C9.36427 12.0629 9.3901 12.1409 9.34008 12.1773L8.95347 12.4577L9.09839 12.9079C9.11714 12.9662 9.04965 13.0143 8.99898 12.9788L8.60801 12.7043L8.21703 12.9788C8.16643 13.0143 8.09887 12.9662 8.11762 12.9079L8.26255 12.4577L7.87601 12.1773C7.82598 12.141 7.85175 12.0629 7.91394 12.0624L8.39445 12.0588L8.54646 11.6109C8.56635 11.5529 8.64987 11.5529 8.66956 11.6109Z" fill="#F5F5F5"/>
<path d="M8.66956 15.418L8.82157 15.8659L9.30207 15.8696C9.36427 15.8701 9.3901 15.948 9.34008 15.9844L8.95347 16.2649L9.09839 16.715C9.11714 16.7733 9.04965 16.8214 8.99898 16.7859L8.60801 16.5114L8.21703 16.7859C8.16643 16.8214 8.09887 16.7733 8.11762 16.715L8.26255 16.2649L7.87601 15.9844C7.82598 15.9481 7.85175 15.8701 7.91394 15.8696L8.39445 15.8659L8.54646 15.418C8.56635 15.36 8.64987 15.36 8.66956 15.418Z" fill="#F5F5F5"/>
<path d="M8.66956 18.8824L8.82157 19.3303L9.30207 19.3339C9.36427 19.3344 9.3901 19.4124 9.34008 19.4487L8.95347 19.7292L9.09839 20.1793C9.11714 20.2376 9.04965 20.2858 8.99898 20.2503L8.60801 19.9758L8.21703 20.2503C8.16643 20.2858 8.09887 20.2376 8.11762 20.1793L8.26255 19.7292L7.87601 19.4487C7.82598 19.4125 7.85175 19.3344 7.91394 19.3339L8.39445 19.3303L8.54646 18.8824C8.56635 18.8244 8.64987 18.8244 8.66956 18.8824Z" fill="#F5F5F5"/>
<path d="M10.5212 5.50029L10.6732 5.94818L11.1537 5.95184C11.2159 5.95233 11.2417 6.03031 11.1916 6.06659L10.8051 6.34707L10.95 6.79721C10.9688 6.8555 10.9013 6.90373 10.8506 6.86815L10.4596 6.59358L10.0687 6.86815C10.0181 6.90373 9.9505 6.8555 9.96926 6.79721L10.1142 6.34707L9.72757 6.06659C9.67754 6.03031 9.70331 5.95226 9.76557 5.95184L10.2461 5.94818L10.3981 5.50029C10.4181 5.44229 10.5015 5.44229 10.5212 5.50029Z" fill="#F5F5F5"/>
<path d="M10.5212 9.64409L10.6732 10.092L11.1537 10.0956C11.2159 10.0961 11.2417 10.1741 11.1916 10.2105L10.8051 10.4909L10.95 10.9411C10.9688 10.9994 10.9013 11.0476 10.8506 11.012L10.4596 10.7375L10.0687 11.012C10.0181 11.0476 9.9505 10.9994 9.96926 10.9411L10.1142 10.4909L9.72757 10.2105C9.67754 10.1742 9.70331 10.0961 9.76557 10.0956L10.2461 10.092L10.3981 9.64409C10.4181 9.58608 10.5015 9.58608 10.5212 9.64409Z" fill="#F5F5F5"/>
<path d="M10.5212 13.5808L10.6732 14.0287L11.1537 14.0324C11.2159 14.0328 11.2417 14.1108 11.1916 14.1472L10.8051 14.4277L10.95 14.8778C10.9688 14.9361 10.9013 14.9842 10.8506 14.9487L10.4596 14.6742L10.0687 14.9487C10.0181 14.9843 9.9505 14.9361 9.96926 14.8778L10.1142 14.4277L9.72757 14.1472C9.67754 14.1109 9.70331 14.0328 9.76557 14.0324L10.2461 14.0287L10.3981 13.5808C10.4181 13.5229 10.5015 13.5229 10.5212 13.5808Z" fill="#F5F5F5"/>
<path d="M10.5212 17.1163L10.6732 17.5641L11.1537 17.5678C11.2159 17.5683 11.2417 17.6463 11.1916 17.6826L10.8051 17.9631L10.95 18.4132C10.9688 18.4715 10.9013 18.5198 10.8506 18.4842L10.4596 18.2097L10.0687 18.4842C10.0181 18.5198 9.9505 18.4715 9.96926 18.4132L10.1142 17.9631L9.72757 17.6826C9.67754 17.6463 9.70331 17.5683 9.76557 17.5678L10.2461 17.5641L10.3981 17.1163C10.4181 17.0583 10.5015 17.0583 10.5212 17.1163Z" fill="#F5F5F5"/>
<path d="M12.3727 3.73095L12.5247 4.17884L13.0052 4.1825C13.0674 4.18299 13.0932 4.26097 13.0431 4.29725L12.6566 4.57773L12.8015 5.02787C12.8203 5.08616 12.7528 5.13432 12.7021 5.09881L12.3111 4.82424L11.9202 5.09881C11.8696 5.13439 11.802 5.08616 11.8207 5.02787L11.9657 4.57773L11.5791 4.29725C11.5291 4.26097 11.5549 4.18292 11.6171 4.1825L12.0976 4.17884L12.2497 3.73095C12.2696 3.67302 12.353 3.67302 12.3727 3.73095Z" fill="#F5F5F5"/>
<path d="M12.3726 7.4671L12.5246 7.91499L13.0051 7.91865C13.0673 7.91914 13.0931 7.99712 13.0431 8.03347L12.6565 8.31394L12.8015 8.76402C12.8203 8.82231 12.7528 8.87047 12.7021 8.83496L12.3111 8.56039L11.9202 8.83496C11.8696 8.87054 11.802 8.82231 11.8207 8.76402L11.9657 8.31387L11.5791 8.0334C11.5291 7.99712 11.5549 7.91907 11.6171 7.91858L12.0976 7.91492L12.2497 7.46703C12.2695 7.40909 12.3529 7.40909 12.3726 7.4671Z" fill="#F5F5F5"/>
<path d="M12.3727 11.6109L12.5247 12.0588L13.0052 12.0624C13.0674 12.0629 13.0932 12.1409 13.0431 12.1773L12.6566 12.4577L12.8015 12.9079C12.8203 12.9662 12.7528 13.0143 12.7021 12.9788L12.3111 12.7043L11.9202 12.9788C11.8696 13.0143 11.802 12.9662 11.8207 12.9079L11.9657 12.4577L11.5791 12.1773C11.5291 12.141 11.5549 12.0629 11.6171 12.0624L12.0976 12.0588L12.2497 11.6109C12.2696 11.5529 12.353 11.5529 12.3727 11.6109Z" fill="#F5F5F5"/>
<path d="M12.3727 15.418L12.5247 15.8659L13.0052 15.8696C13.0674 15.8701 13.0932 15.948 13.0431 15.9844L12.6566 16.2649L12.8015 16.715C12.8203 16.7733 12.7528 16.8214 12.7021 16.7859L12.3111 16.5114L11.9202 16.7859C11.8696 16.8214 11.802 16.7733 11.8207 16.715L11.9657 16.2649L11.5791 15.9844C11.5291 15.9481 11.5549 15.8701 11.6171 15.8696L12.0976 15.8659L12.2497 15.418C12.2696 15.36 12.353 15.36 12.3727 15.418Z" fill="#F5F5F5"/>
<path d="M12.3727 18.8824L12.5247 19.3303L13.0052 19.3339C13.0674 19.3344 13.0932 19.4124 13.0431 19.4487L12.6566 19.7292L12.8015 20.1793C12.8203 20.2376 12.7528 20.2858 12.7021 20.2503L12.3111 19.9758L11.9202 20.2503C11.8696 20.2858 11.802 20.2376 11.8207 20.1793L11.9657 19.7292L11.5791 19.4487C11.5291 19.4125 11.5549 19.3344 11.6171 19.3339L12.0976 19.3303L12.2497 18.8824C12.2696 18.8244 12.353 18.8244 12.3727 18.8824Z" fill="#F5F5F5"/>
<path d="M14.2243 5.50029L14.3763 5.94818L14.8568 5.95184C14.919 5.95233 14.9449 6.03031 14.8948 6.06659L14.5082 6.34707L14.6531 6.79721C14.6718 6.8555 14.6043 6.90373 14.5537 6.86815L14.1627 6.59358L13.7717 6.86815C13.7211 6.90373 13.6536 6.8555 13.6723 6.79721L13.8172 6.34707L13.4307 6.06659C13.3807 6.03031 13.4064 5.95226 13.4686 5.95184L13.9491 5.94818L14.1011 5.50029C14.1212 5.44229 14.2046 5.44229 14.2243 5.50029Z" fill="#F5F5F5"/>
<path d="M14.2243 9.64409L14.3763 10.092L14.8568 10.0956C14.919 10.0961 14.9449 10.1741 14.8948 10.2105L14.5082 10.4909L14.6531 10.9411C14.6718 10.9994 14.6043 11.0476 14.5537 11.012L14.1627 10.7375L13.7717 11.012C13.7211 11.0476 13.6536 10.9994 13.6723 10.9411L13.8172 10.4909L13.4307 10.2105C13.3807 10.1742 13.4064 10.0961 13.4686 10.0956L13.9491 10.092L14.1011 9.64409C14.1212 9.58608 14.2046 9.58608 14.2243 9.64409Z" fill="#F5F5F5"/>
<path d="M14.2243 13.5808L14.3763 14.0287L14.8568 14.0324C14.919 14.0328 14.9449 14.1108 14.8948 14.1472L14.5082 14.4277L14.6531 14.8778C14.6718 14.9361 14.6043 14.9842 14.5537 14.9487L14.1627 14.6742L13.7717 14.9487C13.7211 14.9843 13.6536 14.9361 13.6723 14.8778L13.8172 14.4277L13.4307 14.1472C13.3807 14.1109 13.4064 14.0328 13.4686 14.0324L13.9491 14.0287L14.1011 13.5808C14.1212 13.5229 14.2046 13.5229 14.2243 13.5808Z" fill="#F5F5F5"/>
<path d="M14.2243 17.1163L14.3763 17.5641L14.8568 17.5678C14.919 17.5683 14.9449 17.6463 14.8948 17.6826L14.5082 17.9631L14.6531 18.4132C14.6718 18.4715 14.6043 18.5198 14.5537 18.4842L14.1627 18.2097L13.7717 18.4842C13.7211 18.5198 13.6536 18.4715 13.6723 18.4132L13.8172 17.9631L13.4307 17.6826C13.3807 17.6463 13.4064 17.5683 13.4686 17.5678L13.9491 17.5641L14.1011 17.1163C14.1212 17.0583 14.2046 17.0583 14.2243 17.1163Z" fill="#F5F5F5"/>
<path d="M16.074 3.73095L16.226 4.17884L16.7065 4.1825C16.7687 4.18299 16.7945 4.26097 16.7444 4.29725L16.3578 4.57773L16.5028 5.02787C16.5215 5.08616 16.454 5.13432 16.4034 5.09881L16.0124 4.82424L15.6214 5.09881C15.5708 5.13439 15.5032 5.08616 15.522 5.02787L15.6669 4.57773L15.2803 4.29725C15.2303 4.26097 15.256 4.18292 15.3183 4.1825L15.7988 4.17884L15.9508 3.73095C15.9709 3.67302 16.0543 3.67302 16.074 3.73095Z" fill="#F5F5F5"/>
<path d="M16.074 7.46709L16.226 7.91498L16.7065 7.91864C16.7687 7.91913 16.7945 7.99711 16.7444 8.03346L16.3578 8.31394L16.5028 8.76408C16.5215 8.82237 16.454 8.87053 16.4034 8.83502L16.0124 8.56045L15.6214 8.83502C15.5708 8.8706 15.5032 8.82237 15.522 8.76408L15.6669 8.31394L15.2803 8.03346C15.2303 7.99718 15.256 7.91913 15.3183 7.91864L15.7988 7.91498L15.9508 7.46709C15.9709 7.40908 16.0543 7.40908 16.074 7.46709Z" fill="#F5F5F5"/>
<path d="M16.074 11.6109L16.226 12.0588L16.7065 12.0624C16.7687 12.0629 16.7945 12.1409 16.7444 12.1773L16.3578 12.4577L16.5028 12.9079C16.5215 12.9662 16.454 13.0143 16.4034 12.9788L16.0124 12.7043L15.6214 12.9788C15.5708 13.0143 15.5032 12.9662 15.522 12.9079L15.6669 12.4577L15.2803 12.1773C15.2303 12.141 15.256 12.0629 15.3183 12.0624L15.7988 12.0588L15.9508 11.6109C15.9709 11.5529 16.0543 11.5529 16.074 11.6109Z" fill="#F5F5F5"/>
<path d="M16.074 15.418L16.226 15.8659L16.7065 15.8696C16.7687 15.8701 16.7945 15.948 16.7444 15.9844L16.3578 16.2649L16.5028 16.715C16.5215 16.7733 16.454 16.8214 16.4034 16.7859L16.0124 16.5114L15.6214 16.7859C15.5708 16.8214 15.5032 16.7733 15.522 16.715L15.6669 16.2649L15.2803 15.9844C15.2303 15.9481 15.256 15.8701 15.3183 15.8696L15.7988 15.8659L15.9508 15.418C15.9709 15.36 16.0543 15.36 16.074 15.418Z" fill="#F5F5F5"/>
<path d="M16.074 18.8824L16.226 19.3303L16.7065 19.3339C16.7687 19.3344 16.7945 19.4124 16.7444 19.4487L16.3578 19.7292L16.5028 20.1793C16.5215 20.2376 16.454 20.2858 16.4034 20.2503L16.0124 19.9758L15.6214 20.2503C15.5708 20.2858 15.5032 20.2376 15.522 20.1793L15.6669 19.7292L15.2803 19.4487C15.2303 19.4125 15.256 19.3344 15.3183 19.3339L15.7988 19.3303L15.9508 18.8824C15.9709 18.8244 16.0543 18.8244 16.074 18.8824Z" fill="#F5F5F5"/>
<path d="M17.9255 5.50029L18.0775 5.94818L18.5581 5.95184C18.6203 5.95233 18.6461 6.03031 18.596 6.06659L18.2094 6.34707L18.3543 6.79721C18.3731 6.8555 18.3055 6.90373 18.2549 6.86815L17.8639 6.59358L17.473 6.86815C17.4224 6.90373 17.3548 6.8555 17.3736 6.79721L17.5185 6.34707L17.1319 6.06659C17.0818 6.03031 17.1076 5.95226 17.1698 5.95184L17.6504 5.94818L17.8024 5.50029C17.8224 5.44229 17.9058 5.44229 17.9255 5.50029Z" fill="#F5F5F5"/>
<path d="M17.9255 9.64409L18.0775 10.092L18.5581 10.0956C18.6203 10.0961 18.6461 10.1741 18.596 10.2105L18.2094 10.4909L18.3543 10.9411C18.3731 10.9994 18.3055 11.0476 18.2549 11.012L17.8639 10.7375L17.473 11.012C17.4224 11.0476 17.3548 10.9994 17.3736 10.9411L17.5185 10.4909L17.1319 10.2105C17.0818 10.1742 17.1076 10.0961 17.1698 10.0956L17.6504 10.092L17.8024 9.64409C17.8224 9.58608 17.9058 9.58608 17.9255 9.64409Z" fill="#F5F5F5"/>
<path d="M17.9255 13.5808L18.0775 14.0287L18.5581 14.0324C18.6203 14.0328 18.6461 14.1108 18.596 14.1472L18.2094 14.4277L18.3543 14.8778C18.3731 14.9361 18.3055 14.9842 18.2549 14.9487L17.8639 14.6742L17.473 14.9487C17.4224 14.9843 17.3548 14.9361 17.3736 14.8778L17.5185 14.4277L17.1319 14.1472C17.0818 14.1109 17.1076 14.0328 17.1698 14.0324L17.6504 14.0287L17.8024 13.5808C17.8224 13.5229 17.9058 13.5229 17.9255 13.5808Z" fill="#F5F5F5"/>
<path d="M17.9255 17.1163L18.0775 17.5641L18.5581 17.5678C18.6203 17.5683 18.6461 17.6463 18.596 17.6826L18.2094 17.9631L18.3543 18.4132C18.3731 18.4715 18.3055 18.5198 18.2549 18.4842L17.8639 18.2097L17.473 18.4842C17.4224 18.5198 17.3548 18.4715 17.3736 18.4132L17.5185 17.9631L17.1319 17.6826C17.0818 17.6463 17.1076 17.5683 17.1698 17.5678L17.6504 17.5641L17.8024 17.1163C17.8224 17.0583 17.9058 17.0583 17.9255 17.1163Z" fill="#F5F5F5"/>
<path d="M19.7771 3.73095L19.9291 4.17884L20.4096 4.1825C20.4718 4.18299 20.4976 4.26097 20.4476 4.29725L20.061 4.57773L20.2059 5.02787C20.2246 5.08616 20.1571 5.13432 20.1065 5.09881L19.7155 4.82424L19.3245 5.09881C19.2739 5.13439 19.2064 5.08616 19.2251 5.02787L19.37 4.57773L18.9834 4.29725C18.9334 4.26097 18.9592 4.18292 19.0214 4.1825L19.5019 4.17884L19.6539 3.73095C19.6739 3.67302 19.7574 3.67302 19.7771 3.73095Z" fill="#F5F5F5"/>
<path d="M19.7771 7.46709L19.9291 7.91498L20.4096 7.91864C20.4718 7.91913 20.4976 7.99711 20.4476 8.03346L20.061 8.31394L20.2059 8.76408C20.2246 8.82237 20.1571 8.87053 20.1065 8.83502L19.7155 8.56045L19.3245 8.83502C19.2739 8.8706 19.2064 8.82237 19.2251 8.76408L19.37 8.31394L18.9834 8.03346C18.9334 7.99718 18.9592 7.91913 19.0214 7.91864L19.5019 7.91498L19.6539 7.46709C19.6739 7.40908 19.7574 7.40908 19.7771 7.46709Z" fill="#F5F5F5"/>
<path d="M19.7771 11.6109L19.9291 12.0588L20.4096 12.0624C20.4718 12.0629 20.4976 12.1409 20.4476 12.1773L20.061 12.4577L20.2059 12.9079C20.2246 12.9662 20.1571 13.0143 20.1065 12.9788L19.7155 12.7043L19.3245 12.9788C19.2739 13.0143 19.2064 12.9662 19.2251 12.9079L19.37 12.4577L18.9834 12.1773C18.9334 12.141 18.9592 12.0629 19.0214 12.0624L19.5019 12.0588L19.6539 11.6109C19.6739 11.5529 19.7574 11.5529 19.7771 11.6109Z" fill="#F5F5F5"/>
<path d="M19.7771 15.418L19.9291 15.8659L20.4096 15.8696C20.4718 15.8701 20.4976 15.948 20.4476 15.9844L20.061 16.2649L20.2059 16.715C20.2246 16.7733 20.1571 16.8214 20.1065 16.7859L19.7155 16.5114L19.3245 16.7859C19.2739 16.8214 19.2064 16.7733 19.2251 16.715L19.37 16.2649L18.9834 15.9844C18.9334 15.9481 18.9592 15.8701 19.0214 15.8696L19.5019 15.8659L19.6539 15.418C19.6739 15.36 19.7574 15.36 19.7771 15.418Z" fill="#F5F5F5"/>
<path d="M19.7771 18.8824L19.9291 19.3303L20.4096 19.3339C20.4718 19.3344 20.4976 19.4124 20.4476 19.4487L20.061 19.7292L20.2059 20.1793C20.2246 20.2376 20.1571 20.2858 20.1065 20.2503L19.7155 19.9758L19.3245 20.2503C19.2739 20.2858 19.2064 20.2376 19.2251 20.1793L19.37 19.7292L18.9834 19.4487C18.9334 19.4125 18.9592 19.3344 19.0214 19.3339L19.5019 19.3303L19.6539 18.8824C19.6739 18.8244 19.7574 18.8244 19.7771 18.8824Z" fill="#F5F5F5"/>
</g>
</g>
<defs>
<filter id="filter0_d_4164_23200" x="0.287109" y="0" width="40.6426" height="40" filterUnits="userSpaceOnUse" color-interpolation-filters="sRGB">
<feFlood flood-opacity="0" result="BackgroundImageFix"/>
<feColorMatrix in="SourceAlpha" type="matrix" values="0 0 0 0 0 0 0 0 0 0 0 0 0 0 0 0 0 0 127 0" result="hardAlpha"/>
<feOffset/>
<feGaussianBlur stdDeviation="1"/>
<feComposite in2="hardAlpha" operator="out"/>
<feColorMatrix type="matrix" values="0 0 0 0 0 0 0 0 0 0 0 0 0 0 0 0 0 0 0.2 0"/>
<feBlend mode="normal" in2="BackgroundImageFix" result="effect1_dropShadow_4164_23200"/>
<feBlend mode="normal" in="SourceGraphic" in2="effect1_dropShadow_4164_23200" result="shape"/>
</filter>
<filter id="filter1_d_4164_23200" x="0.287109" y="0" width="40.6426" height="40" filterUnits="userSpaceOnUse" color-interpolation-filters="sRGB">
<feFlood flood-opacity="0" result="BackgroundImageFix"/>
<feColorMatrix in="SourceAlpha" type="matrix" values="0 0 0 0 0 0 0 0 0 0 0 0 0 0 0 0 0 0 127 0" result="hardAlpha"/>
<feOffset/>
<feGaussianBlur stdDeviation="1"/>
<feComposite in2="hardAlpha" operator="out"/>
<feColorMatrix type="matrix" values="0 0 0 0 0 0 0 0 0 0 0 0 0 0 0 0 0 0 0.2 0"/>
<feBlend mode="normal" in2="BackgroundImageFix" result="effect1_dropShadow_4164_23200"/>
<feBlend mode="normal" in="SourceGraphic" in2="effect1_dropShadow_4164_23200" result="shape"/>
</filter>
<clipPath id="clip0_4164_23200">
<rect x="2.28711" y="2" width="36.6429" height="36" rx="18" fill="white"/>
</clipPath>
<clipPath id="clip1_4164_23200">
<rect x="2.28711" y="2" width="36.6429" height="36" rx="18" fill="white"/>
</clipPath>
<clipPath id="clip2_4164_23200">
<rect x="2.28711" y="2" width="36.6429" height="36" rx="18" fill="white"/>
</clipPath>
<clipPath id="clip3_4164_23200">
<rect width="36.6429" height="36" fill="white" transform="translate(2.28711 2)"/>
</clipPath>
</defs>
</svg>
