<svg width="195" height="25" viewBox="0 0 195 25" fill="none" xmlns="http://www.w3.org/2000/svg">
<path fill-rule="evenodd" clip-rule="evenodd" d="M98.4046 20.1076L100.842 23.8835H104.857L101.447 18.6779C100.641 17.4681 99.926 16.7533 99.2844 16.5516C99.9076 16.295 100.586 15.5985 101.301 14.4804L104.508 9.65971H100.494L98.2763 13.0507C97.8181 13.7655 97.4331 14.2421 97.0849 14.4804C96.7366 14.7187 96.2417 14.847 95.6002 14.847H94.7204V3.97754H91.1094V23.8835H94.7204V18.3113H95.7102C96.3517 18.3113 96.8466 18.4396 97.1949 18.6779C97.5431 18.9345 97.9464 19.411 98.4046 20.1076ZM39.8773 23.9019L41.307 20.2543H48.3273L49.757 23.9019H54.1011L46.0361 3.99597H43.7265L35.5332 23.9019H39.8773ZM42.6641 16.5149L44.827 11.0894L46.9532 16.5149H42.6641ZM62.2203 9.47632H62.4402C63.6133 9.47632 64.7314 9.7146 65.8128 10.1912C66.876 10.6677 67.7375 11.3093 68.3607 12.1158L66.3261 14.0221C65.8862 13.5272 65.2996 13.1239 64.5481 12.8123C63.7966 12.5007 63.1184 12.3357 62.4952 12.3357H62.2752C61.6154 12.3541 61.0838 12.4824 60.6806 12.739C60.2773 12.9773 60.0757 13.3255 60.0757 13.7654C60.0757 14.1687 60.259 14.462 60.6072 14.6453C60.9555 14.8286 61.5604 14.9752 62.4402 15.0485L63.4117 15.1585C66.9126 15.3968 68.6723 16.8815 68.6723 19.5942C68.6723 20.8773 68.159 21.9404 67.1143 22.7836C66.0695 23.6268 64.6947 24.0483 62.9718 24.0483H62.8251C61.4321 24.0483 60.1124 23.7917 58.8659 23.2968C57.6379 22.8019 56.7214 22.1421 56.1348 21.3172L58.1877 19.3926C58.6093 19.8875 59.2509 20.2908 60.149 20.6207C61.0472 20.9506 61.927 21.1156 62.7885 21.1156H62.9351C64.3648 21.1156 65.0613 20.6574 65.0613 19.7226C65.0613 19.191 64.878 18.8244 64.4931 18.6228C64.1082 18.4212 63.485 18.2745 62.6235 18.2012L61.8353 18.1096C58.2794 17.7979 56.4831 16.4232 56.4831 13.9854C56.4831 12.574 57.033 11.4926 58.1328 10.6861C59.2142 9.8979 60.5706 9.49465 62.2203 9.47632ZM83.6659 23.8834H86.0854V9.65963H83.6659L83.4643 11.6759C82.3096 10.1912 80.7515 9.45801 78.7536 9.45801C76.7557 9.45801 75.106 10.1729 73.7863 11.5842C72.4666 12.9956 71.8067 14.7186 71.8067 16.7715C71.8067 18.8061 72.4666 20.5291 73.7863 21.9405C75.106 23.3518 76.7557 24.0484 78.7536 24.0484C80.7332 24.0484 82.3096 23.3335 83.4643 21.8671L83.6659 23.8834ZM79.084 20.5657C80.0737 20.5657 80.9352 20.2175 81.6501 19.521C82.3649 18.8244 82.7499 17.908 82.7499 16.7898C82.7499 15.6717 82.3833 14.7553 81.6501 14.0404C80.9169 13.3256 80.0554 12.9773 79.084 12.9773C78.0942 12.9773 77.2327 13.3256 76.5178 14.0404C75.7846 14.7553 75.418 15.6717 75.418 16.7898C75.418 17.908 75.7846 18.8244 76.4995 19.521C77.2143 20.2175 78.0758 20.5657 79.084 20.5657ZM121.187 23.8834H118.768L118.566 21.8671C117.411 23.3335 115.835 24.0484 113.855 24.0484C111.857 24.0484 110.208 23.3518 108.888 21.9405C107.568 20.5291 106.908 18.8061 106.908 16.7715C106.908 14.7186 107.568 12.9956 108.888 11.5842C110.208 10.1729 111.857 9.45801 113.855 9.45801C115.853 9.45801 117.411 10.1912 118.566 11.6759L118.768 9.65963H121.187V23.8834ZM116.769 19.521C116.054 20.2175 115.193 20.5657 114.203 20.5657C113.195 20.5657 112.333 20.2175 111.619 19.521C110.904 18.8244 110.537 17.908 110.537 16.7898C110.537 15.6717 110.904 14.7553 111.637 14.0404C112.352 13.3256 113.213 12.9773 114.203 12.9773C115.175 12.9773 116.036 13.3256 116.769 14.0404C117.502 14.7553 117.869 15.6717 117.869 16.7898C117.869 17.908 117.502 18.8244 116.769 19.521ZM129.673 3.97754V11.0528C130.608 9.98964 131.855 9.45808 133.431 9.45808C135.429 9.45808 137.079 10.1729 138.38 11.5843C139.681 12.9957 140.341 14.7187 140.341 16.7716C140.341 18.8245 139.681 20.5475 138.38 21.9405C137.079 23.3519 135.429 24.0484 133.431 24.0484C131.433 24.0484 129.857 23.3152 128.684 21.8672L128.482 23.8835H126.063V3.97754H129.673ZM133.064 12.9773C134.036 12.9773 134.897 13.3256 135.631 14.0404C136.345 14.7553 136.712 15.6534 136.73 16.7898C136.73 17.908 136.364 18.8244 135.649 19.521C134.934 20.2175 134.073 20.5657 133.064 20.5657C132.093 20.5657 131.231 20.2175 130.498 19.521C129.765 18.8244 129.399 17.908 129.399 16.7898C129.399 15.6717 129.765 14.7553 130.498 14.0404C131.213 13.3256 132.075 12.9773 133.064 12.9773ZM157.755 23.8834H155.336L155.134 21.8671C153.979 23.3335 152.403 24.0484 150.424 24.0484C148.444 24.0484 146.776 23.3518 145.456 21.9405C144.136 20.5291 143.477 18.8061 143.477 16.7715C143.477 14.7186 144.136 12.9956 145.456 11.5842C146.776 10.1729 148.426 9.45801 150.424 9.45801C152.421 9.45801 153.979 10.1912 155.134 11.6759L155.336 9.65963H157.755V23.8834ZM153.32 19.521C152.605 20.2175 151.744 20.5657 150.754 20.5657C149.764 20.5657 148.903 20.2175 148.169 19.521C147.455 18.8244 147.088 17.908 147.088 16.7898C147.088 15.6717 147.455 14.7553 148.188 14.0404C148.903 13.3256 149.764 12.9773 150.754 12.9773C151.725 12.9773 152.587 13.3256 153.32 14.0404C154.053 14.7553 154.42 15.6717 154.42 16.7898C154.42 17.908 154.053 18.8244 153.32 19.521ZM170.182 9.47632C172.198 9.47632 173.719 10.0995 174.782 11.3459C175.845 12.5923 176.377 14.2787 176.377 16.3866V23.8834H172.766V16.6065C172.766 14.187 171.721 12.9589 169.613 12.9589C168.532 12.9589 167.707 13.2889 167.102 13.9487C166.516 14.6086 166.222 15.5984 166.222 16.9181V23.8834H162.611V9.65961H165.031L165.288 11.8775C166.277 10.2828 167.909 9.47632 170.182 9.47632ZM188.549 20.1076L190.987 23.8835H195.001L191.592 18.6779C190.785 17.4681 190.07 16.7533 189.429 16.5516C190.052 16.295 190.73 15.5985 191.445 14.4804L194.635 9.65971H190.639L188.421 13.0507C187.963 13.7655 187.578 14.2421 187.229 14.4804C186.881 14.7187 186.386 14.847 185.745 14.847H184.865V3.97754H181.254V23.8835H184.865V18.3113H185.855C186.496 18.3113 186.991 18.4396 187.339 18.6779C187.688 18.9345 188.091 19.411 188.549 20.1076Z" fill="white"/>
<path d="M3.85471 18.916L2.35902 20.4117C1.57268 21.198 0.786339 21.9844 0 22.7707V18.9215L0.00549887 18.916H3.85471V18.916Z" fill="url(#paint0_linear_3262_49222)"/>
<path d="M17.1945 18.916V23.92H1.1543L3.44183 21.6325L4.46462 20.6152L6.15827 18.916H17.1945Z" fill="url(#paint1_linear_3262_49222)"/>
<path d="M17.1941 7.88525V17.2828H7.79102C10.8814 14.198 14.0597 11.0196 17.1941 7.88525Z" fill="url(#paint2_linear_3262_49222)"/>
<path d="M23.9197 1.15479V23.9201H18.8223V6.25224C19.7406 5.33393 20.6589 4.41562 21.5772 3.49181L23.9197 1.15479Z" fill="url(#paint3_linear_3262_49222)"/>
<path d="M22.7714 0C16.6126 6.16424 10.8003 11.9765 5.48839 17.2885H1.61719L18.6967 0H22.7714Z" fill="url(#paint4_linear_3262_49222)"/>
<path d="M16.4031 0L0 16.6011V0H16.4031Z" fill="url(#paint5_linear_3262_49222)"/>
<defs>
<linearGradient id="paint0_linear_3262_49222" x1="3.85471" y1="18.916" x2="2.90063" y2="23.3894" gradientUnits="userSpaceOnUse">
<stop stop-color="#F61E2E"/>
<stop offset="1" stop-color="#920448"/>
</linearGradient>
<linearGradient id="paint1_linear_3262_49222" x1="17.1945" y1="18.916" x2="16.7923" y2="24.9605" gradientUnits="userSpaceOnUse">
<stop stop-color="#F61E2E"/>
<stop offset="1" stop-color="#920448"/>
</linearGradient>
<linearGradient id="paint2_linear_3262_49222" x1="17.1941" y1="7.88525" x2="14.8693" y2="18.7916" gradientUnits="userSpaceOnUse">
<stop stop-color="#F61E2E"/>
<stop offset="1" stop-color="#920448"/>
</linearGradient>
<linearGradient id="paint3_linear_3262_49222" x1="23.9197" y1="1.15479" x2="10.1257" y2="15.6365" gradientUnits="userSpaceOnUse">
<stop stop-color="#F61E2E"/>
<stop offset="1" stop-color="#920448"/>
</linearGradient>
<linearGradient id="paint4_linear_3262_49222" x1="22.7714" y1="0" x2="19.223" y2="20.3572" gradientUnits="userSpaceOnUse">
<stop stop-color="#F61E2E"/>
<stop offset="1" stop-color="#920448"/>
</linearGradient>
<linearGradient id="paint5_linear_3262_49222" x1="16.4031" y1="0" x2="12.249" y2="19.2451" gradientUnits="userSpaceOnUse">
<stop stop-color="#F61E2E"/>
<stop offset="1" stop-color="#920448"/>
</linearGradient>
</defs>
</svg>
