<svg width="25" height="24" viewBox="0 0 25 24" fill="none" xmlns="http://www.w3.org/2000/svg">
<path fill-rule="evenodd" clip-rule="evenodd" d="M6.50025 15.9377H4.4232L2.86567 9.73152C2.79174 9.44604 2.63477 9.19365 2.40388 9.0747C1.82765 8.77577 1.19269 8.53787 0.5 8.41788V8.17894H3.84596C4.30776 8.17894 4.6541 8.53787 4.71182 8.95472L5.51996 13.4314L7.59599 8.17894H9.61532L6.50025 15.9377ZM10.7698 15.9377H8.8082L10.4235 8.17894H12.3851L10.7698 15.9377ZM14.9229 10.3283C14.9806 9.91047 15.327 9.67153 15.731 9.67153C16.366 9.61154 17.0577 9.73152 17.6349 10.0294L17.9812 8.35892C17.404 8.11999 16.769 8 16.1928 8C14.2889 8 12.9036 9.0747 12.9036 10.5663C12.9036 11.7009 13.8849 12.2967 14.5776 12.6557C15.327 13.0136 15.6156 13.2525 15.5579 13.6104C15.5579 14.1472 14.9806 14.3862 14.4044 14.3862C13.7117 14.3862 13.019 14.2072 12.3851 13.9083L12.0387 15.5798C12.7314 15.8777 13.4808 15.9977 14.1735 15.9977C16.3083 16.0566 17.6349 14.983 17.6349 13.3714C17.6349 11.342 14.9229 11.2231 14.9229 10.3283ZM24.5 15.9377L22.9425 8.17894H21.2695C20.9231 8.17894 20.5768 8.41788 20.4613 8.77577L17.5772 15.9377H19.5965L19.9996 14.804H22.4807L22.7116 15.9377H24.5ZM21.5581 10.2684L22.1343 13.1925H20.5191L21.5581 10.2684Z" fill="#191D66"/>
</svg>
